<svg width="157" height="48" viewBox="0 0 157 48" fill="none" xmlns="http://www.w3.org/2000/svg">
<path d="M61.376 26.696C61.9307 28.7013 63.4347 29.704 65.888 29.704C67.4667 29.704 68.6613 29.1707 69.472 28.104L72.8 30.024C71.2213 32.3067 68.896 33.448 65.824 33.448C63.1787 33.448 61.056 32.648 59.456 31.048C57.856 29.448 57.056 27.432 57.056 25C57.056 22.5893 57.8453 20.584 59.424 18.984C61.0027 17.3627 63.0293 16.552 65.504 16.552C67.8507 16.552 69.7813 17.3627 71.296 18.984C72.832 20.6053 73.6 22.6107 73.6 25C73.6 25.5333 73.5467 26.0987 73.44 26.696H61.376ZM61.312 23.496H69.472C69.2373 22.408 68.7467 21.5973 68 21.064C67.2747 20.5307 66.4427 20.264 65.504 20.264C64.3947 20.264 63.4773 20.552 62.752 21.128C62.0267 21.6827 61.5467 22.472 61.312 23.496ZM84.0977 16.552C85.8471 16.552 87.2871 17.1387 88.4178 18.312C89.5698 19.4853 90.1458 21.1067 90.1458 23.176V33H86.0177V23.688C86.0177 22.6213 85.7297 21.8107 85.1537 21.256C84.5777 20.68 83.8097 20.392 82.8497 20.392C81.7831 20.392 80.9297 20.7227 80.2897 21.384C79.6497 22.0453 79.3297 23.0373 79.3297 24.36V33H75.2017V17H79.3297V18.792C80.3324 17.2987 81.9217 16.552 84.0977 16.552ZM100.006 33.448C97.5958 33.448 95.5798 32.6373 93.9585 31.016C92.3585 29.3947 91.5585 27.3893 91.5585 25C91.5585 22.6107 92.3585 20.6053 93.9585 18.984C95.5798 17.3627 97.5958 16.552 100.006 16.552C101.564 16.552 102.982 16.9253 104.262 17.672C105.542 18.4187 106.513 19.4213 107.174 20.68L103.622 22.76C103.302 22.0987 102.812 21.576 102.15 21.192C101.51 20.808 100.785 20.616 99.9745 20.616C98.7372 20.616 97.7132 21.032 96.9025 21.864C96.0918 22.6747 95.6865 23.72 95.6865 25C95.6865 26.2587 96.0918 27.304 96.9025 28.136C97.7132 28.9467 98.7372 29.352 99.9745 29.352C100.806 29.352 101.542 29.1707 102.182 28.808C102.844 28.424 103.334 27.9013 103.654 27.24L107.238 29.288C106.534 30.5467 105.542 31.56 104.262 32.328C102.982 33.0747 101.564 33.448 100.006 33.448ZM120.052 17H124.18V33H120.052V31.112C118.814 32.6693 117.076 33.448 114.836 33.448C112.702 33.448 110.868 32.6373 109.332 31.016C107.817 29.3733 107.06 27.368 107.06 25C107.06 22.632 107.817 20.6373 109.332 19.016C110.868 17.3733 112.702 16.552 114.836 16.552C117.076 16.552 118.814 17.3307 120.052 18.888V17ZM112.436 28.264C113.268 29.096 114.324 29.512 115.604 29.512C116.884 29.512 117.94 29.096 118.772 28.264C119.625 27.4107 120.052 26.3227 120.052 25C120.052 23.6773 119.625 22.6 118.772 21.768C117.94 20.9147 116.884 20.488 115.604 20.488C114.324 20.488 113.268 20.9147 112.436 21.768C111.604 22.6 111.188 23.6773 111.188 25C111.188 26.3227 111.604 27.4107 112.436 28.264ZM130.326 21.544C130.326 21.9707 130.603 22.3227 131.158 22.6C131.734 22.856 132.427 23.0907 133.238 23.304C134.049 23.496 134.859 23.752 135.67 24.072C136.481 24.3707 137.163 24.8827 137.718 25.608C138.294 26.3333 138.582 27.24 138.582 28.328C138.582 29.9707 137.963 31.24 136.726 32.136C135.51 33.0107 133.985 33.448 132.15 33.448C128.865 33.448 126.625 32.1787 125.43 29.64L129.014 27.624C129.483 29.0107 130.529 29.704 132.15 29.704C133.622 29.704 134.358 29.2453 134.358 28.328C134.358 27.9013 134.07 27.56 133.494 27.304C132.939 27.0267 132.257 26.7813 131.446 26.568C130.635 26.3547 129.825 26.088 129.014 25.768C128.203 25.448 127.51 24.9467 126.934 24.264C126.379 23.56 126.102 22.6853 126.102 21.64C126.102 20.0613 126.678 18.824 127.83 17.928C129.003 17.0107 130.454 16.552 132.182 16.552C133.483 16.552 134.667 16.8507 135.734 17.448C136.801 18.024 137.643 18.856 138.262 19.944L134.742 21.864C134.23 20.776 133.377 20.232 132.182 20.232C131.649 20.232 131.201 20.3493 130.838 20.584C130.497 20.8187 130.326 21.1387 130.326 21.544ZM148.853 16.552C150.602 16.552 152.042 17.1387 153.173 18.312C154.325 19.4853 154.901 21.1067 154.901 23.176V33H150.773V23.688C150.773 22.6213 150.485 21.8107 149.909 21.256C149.333 20.68 148.565 20.392 147.605 20.392C146.538 20.392 145.685 20.7227 145.045 21.384C144.405 22.0453 144.085 23.0373 144.085 24.36V33H139.957V10.6H144.085V18.792C145.087 17.2987 146.677 16.552 148.853 16.552Z" fill="white"/>
<path d="M24 4L44 17V31L24 44L4 31V17L24 4Z" stroke="white" stroke-width="3" stroke-linecap="round" stroke-linejoin="round"/>
<path d="M24 44V31" stroke="white" stroke-width="3" stroke-linecap="round" stroke-linejoin="round"/>
<path d="M44 17L24 31L4 17" stroke="white" stroke-width="3" stroke-linecap="round" stroke-linejoin="round"/>
<path d="M4 31L24 17L44 31" stroke="white" stroke-width="3" stroke-linecap="round" stroke-linejoin="round"/>
<path d="M24 4V17" stroke="white" stroke-width="3" stroke-linecap="round" stroke-linejoin="round"/>
</svg>
