<svg width="401" height="390" viewBox="0 0 401 390" fill="none" xmlns="http://www.w3.org/2000/svg">
<path opacity="0.61" d="M398.26 185.809C398.099 222.553 399.388 260.99 386.818 296.123C373.683 332.868 343.949 353.335 307.205 364.213C249.832 381.216 191.894 376.3 133.554 368.645C103.176 364.697 71.427 359.137 47.4946 339.959C6.07642 306.84 3.57843 247.694 1.56392 199.104C-0.692322 144.229 8.09092 83.7941 56.6808 50.1116C84.6421 30.6918 118.486 26.9851 151.685 25.3735C192.297 23.4396 232.99 24.326 273.442 28.0326C305.11 31.0141 338.309 36.1712 359.823 61.2317C379.727 84.4388 391.008 114.334 395.521 144.31C397.616 158.089 398.341 171.949 398.26 185.809Z" fill="#C2C2C2"/>
<path d="M187.221 35.6069C178.841 35.6069 172.072 42.3757 172.072 50.756C172.072 59.1364 178.841 65.9051 187.221 65.9051C195.601 65.9051 202.37 59.1364 202.37 50.756C202.45 42.3757 195.601 35.6069 187.221 35.6069ZM187.221 59.2975C182.467 59.2975 178.679 55.4297 178.679 50.756C178.679 46.0018 182.547 42.2145 187.221 42.2145C191.975 42.2145 195.762 46.0824 195.762 50.756C195.762 55.4297 191.975 59.2975 187.221 59.2975Z" fill="white"/>
<path d="M152.974 75.3333C154.022 81.7797 158.212 87.5815 164.014 90.5629C169.816 93.5444 176.987 93.625 182.87 90.6435C186.899 88.629 190.525 83.4719 187.785 79.8458C185.448 76.7031 180.049 77.8313 177.874 81.0545C175.698 84.2777 175.859 88.5484 176.665 92.3357C179.566 106.276 189.397 118.524 202.37 124.407C215.343 130.289 231.057 129.564 243.385 122.634C248.059 119.975 252.41 116.349 254.908 111.514C257.406 106.679 257.809 100.635 254.989 95.9618C254.344 94.8337 253.297 93.7861 252.007 93.625C249.187 93.3832 248.22 97.5734 249.348 100.152C251.282 104.423 256.036 107.243 260.629 106.84C265.303 106.437 269.493 102.892 270.702 98.3792C271.75 94.189 270.46 89.7571 271.105 85.4864C272.072 79.04 278.196 73.8022 284.723 73.8022" stroke="#4B789B" stroke-miterlimit="10" stroke-dasharray="6 6"/>
<path d="M147.817 150.192C162.548 150.192 174.489 138.251 174.489 123.52C174.489 108.79 162.548 96.8481 147.817 96.8481C133.087 96.8481 121.145 108.79 121.145 123.52C121.145 138.251 133.087 150.192 147.817 150.192Z" stroke="#4B789B" stroke-miterlimit="10" stroke-dasharray="6.11 6.11"/>
<path d="M182.145 160.265H125.094V177.67H182.145V160.265Z" stroke="#4B789B" stroke-miterlimit="10" stroke-dasharray="6 6"/>
<path d="M149.187 177.509H125.094V192.98H149.187V177.509Z" stroke="#4B789B" stroke-miterlimit="10" stroke-dasharray="6 6"/>
<path d="M85.0454 102.328H131.782" stroke="#4B789B" stroke-width="0.5" stroke-miterlimit="10" stroke-dasharray="4 4"/>
<path d="M79.0823 110.708H124.771" stroke="#4B789B" stroke-width="0.5" stroke-miterlimit="10" stroke-dasharray="4 4"/>
<path d="M79.0823 119.088H122.434" stroke="#4B789B" stroke-width="0.5" stroke-miterlimit="10" stroke-dasharray="4 4"/>
<path d="M85.0454 127.469H121.468" stroke="#4B789B" stroke-width="0.5" stroke-miterlimit="10" stroke-dasharray="4 4"/>
<path d="M84.0783 102.408C84.0783 103.859 82.9502 104.987 81.4997 104.987C80.0493 104.987 78.9211 103.859 78.9211 102.408C78.9211 100.958 80.0493 99.8296 81.4997 99.8296C82.9502 99.8296 84.0783 100.958 84.0783 102.408Z" fill="#4B789B"/>
<path d="M84.4008 127.066C84.4008 128.516 83.2727 129.644 81.8222 129.644C80.3718 129.644 79.2437 128.516 79.2437 127.066C79.2437 125.615 80.3718 124.487 81.8222 124.487C83.2727 124.487 84.4008 125.696 84.4008 127.066Z" fill="#4B789B"/>
<path d="M78.5182 118.685C78.5182 120.136 77.3901 121.264 75.9396 121.264C74.4892 121.264 73.3611 120.136 73.3611 118.685C73.3611 117.235 74.4892 116.107 75.9396 116.107C77.3901 116.107 78.5182 117.235 78.5182 118.685Z" fill="#4B789B"/>
<path d="M78.5182 110.144C78.5182 111.594 77.3901 112.723 75.9396 112.723C74.4892 112.723 73.3611 111.594 73.3611 110.144C73.3611 108.694 74.4892 107.565 75.9396 107.565C77.3901 107.565 78.5182 108.774 78.5182 110.144Z" fill="#4B789B"/>
<path d="M145.158 143.343C145.077 141.489 146.528 139.958 148.381 139.878C150.234 139.797 151.765 141.248 151.846 143.101C151.846 143.182 151.846 143.343 151.846 143.423C153.135 143.182 154.424 142.779 155.633 142.295C155.553 142.215 155.472 142.134 155.391 141.973C154.424 140.361 154.908 138.347 156.52 137.38C158.131 136.413 160.146 136.896 161.113 138.508C161.193 138.589 161.193 138.75 161.274 138.83C162.241 137.944 163.208 136.977 164.014 135.929C163.852 135.849 163.772 135.849 163.611 135.768C161.999 134.882 161.354 132.867 162.241 131.175C163.127 129.564 165.142 128.919 166.834 129.805C166.995 129.886 167.076 129.966 167.156 130.047C167.559 128.838 167.881 127.468 168.043 126.179C167.881 126.179 167.72 126.26 167.64 126.26C165.786 126.34 164.255 124.89 164.175 123.037C164.094 121.183 165.545 119.652 167.398 119.572C167.559 119.572 167.72 119.572 167.881 119.572C167.64 118.202 167.237 116.912 166.753 115.704C166.592 115.784 166.512 115.946 166.35 116.026C164.739 116.993 162.724 116.51 161.757 114.898C160.79 113.286 161.274 111.272 162.885 110.305C163.047 110.224 163.208 110.144 163.369 110.063C162.483 109.016 161.516 108.129 160.387 107.323C160.307 107.485 160.307 107.646 160.146 107.807C159.259 109.419 157.245 110.063 155.553 109.177C153.941 108.29 153.296 106.276 154.183 104.584C154.263 104.423 154.344 104.261 154.505 104.181C153.216 103.778 151.927 103.456 150.557 103.294C150.557 103.456 150.637 103.617 150.637 103.858C150.718 105.712 149.267 107.243 147.414 107.323C145.561 107.404 144.03 105.954 143.949 104.1C143.949 103.939 143.949 103.778 143.949 103.536C142.579 103.778 141.29 104.181 140.081 104.745C140.162 104.906 140.323 104.987 140.404 105.148C141.371 106.759 140.887 108.774 139.275 109.741C137.664 110.708 135.649 110.224 134.682 108.613C134.602 108.452 134.521 108.29 134.441 108.129C133.393 109.016 132.507 109.983 131.701 111.111C131.862 111.191 132.023 111.191 132.184 111.272C133.796 112.158 134.441 114.173 133.554 115.865C132.668 117.557 130.653 118.121 128.961 117.235C128.8 117.154 128.719 117.074 128.558 116.993C128.155 118.282 127.833 119.572 127.672 120.941C127.833 120.941 127.994 120.861 128.155 120.861C130.009 120.78 131.54 122.231 131.62 124.084C131.701 125.937 130.25 127.468 128.397 127.549C128.236 127.549 128.155 127.549 127.994 127.549C128.236 128.838 128.639 130.128 129.203 131.336C129.283 131.256 129.445 131.175 129.525 131.095C131.137 130.128 133.151 130.611 134.118 132.223C135.085 133.834 134.602 135.849 132.99 136.816C132.91 136.896 132.748 136.896 132.668 136.977C133.554 137.944 134.521 138.83 135.569 139.636C135.649 139.556 135.649 139.394 135.73 139.314C136.616 137.702 138.631 137.058 140.323 137.944C141.935 138.83 142.579 140.845 141.693 142.537C141.612 142.618 141.532 142.698 141.532 142.859C142.74 143.262 144.03 143.585 145.4 143.746C145.158 143.585 145.158 143.504 145.158 143.343ZM134.118 123.923C133.877 116.348 139.839 110.063 147.414 109.821C154.989 109.58 161.274 115.543 161.516 123.117C161.757 130.692 155.794 136.977 148.22 137.219C140.645 137.46 134.36 131.497 134.118 123.923Z" fill="white"/>
<path d="M158.051 120.7C156.52 115.059 150.637 111.675 144.997 113.206C139.356 114.737 135.972 120.619 137.503 126.26C139.034 131.9 144.916 135.285 150.557 133.754C156.278 132.223 159.582 126.34 158.051 120.7ZM149.59 129.886C146.044 130.853 142.418 128.758 141.451 125.212C140.484 121.667 142.579 118.041 146.125 117.074C149.67 116.107 153.296 118.202 154.263 121.747C155.15 125.293 153.055 128.919 149.59 129.886Z" fill="#52A1BF"/>
<path d="M330.573 261.07V321.667" stroke="black" stroke-width="4" stroke-miterlimit="10"/>
<path d="M356.117 321.022H306.077" stroke="black" stroke-width="5" stroke-miterlimit="10"/>
<path d="M372.958 229.725C369.574 239.958 364.336 249.306 355.956 256.316C352.33 259.298 349.268 260.909 344.755 262.118C339.356 263.568 333.716 263.891 328.156 264.132C320.017 264.374 311.878 264.374 303.74 264.052C298.744 263.891 292.942 263.165 290.041 259.056C284.965 251.884 290.122 243.02 297.213 240.442C304.062 237.944 311.314 236.816 317.761 233.27C331.298 225.937 334.844 209.499 338.389 195.8C340.968 185.889 342.66 174.93 349.751 166.953C358.776 156.961 372.958 158.895 379.002 170.982C383.273 179.604 380.21 190.321 379.244 199.346C378.357 209.66 376.181 219.974 372.958 229.725Z" fill="#52A1BF"/>
<path d="M246.608 285.406C244.03 286.131 239.92 285.244 238.55 283.552C237.019 281.618 238.873 278.315 239.759 276.461C246.689 261.554 250.154 246.082 262.563 234.318C263.53 233.431 264.497 232.545 265.706 232.142C268.123 231.256 270.944 232.545 272.313 234.64C273.844 236.977 274.489 241.651 274.731 244.471C275.134 248.742 273.683 253.174 271.427 256.8C268.607 261.393 264.578 265.099 260.629 268.806C256.681 272.513 252.732 276.381 250.234 281.135C249.59 282.424 248.945 283.794 247.898 284.842C247.656 285.003 247.172 285.245 246.608 285.406Z" fill="#EF8C72"/>
<path d="M243.869 281.054C241.774 280.088 240.162 278.637 239.115 276.864C238.309 277.106 237.261 277.59 236.697 277.59C235.247 277.67 233.716 277.509 232.265 277.348C229.928 277.106 218.969 273.963 218.969 278.556C218.969 281.78 226.866 285.083 229.042 286.131C231.862 287.501 234.844 288.629 237.906 289.435C239.759 289.918 244.11 292.255 245.803 290.885C246.125 290.563 246.367 290.16 246.608 289.757C247.817 287.34 249.026 284.922 250.235 282.505C248.059 282.344 245.883 281.941 243.869 281.054Z" fill="black"/>
<path d="M272.072 271.385C270.863 273.641 269.493 275.897 268.043 278.073C258.131 275.655 248.462 272.271 239.276 268C243.546 264.777 245.319 255.591 247.898 250.917C251.443 244.471 255.553 238.347 259.421 232.142C263.45 225.535 267.72 217.96 274.167 213.367C287.946 203.375 306.077 213.528 320.5 215.865C327.914 217.074 335.811 223.52 342.096 218.282C361.838 265.825 318.002 255.43 311.395 249.709C307.527 244.39 293.506 224.97 286.899 238.266C281.58 248.903 277.793 260.829 272.072 271.385Z" fill="#FF6548"/>
<path d="M287.704 320.942C272.394 337.461 277.793 287.904 285.69 286.937C306.157 282.666 290.041 313.286 287.704 320.942Z" fill="#EF8C72"/>
<path d="M266.27 303.455C274.489 302.73 290.928 305.631 295.037 302.972C297.938 301.038 299.066 290.24 299.711 286.936C300.678 281.538 301.242 275.977 302.209 270.579C302.773 267.033 303.337 259.62 306.077 256.961C309.058 254.14 321.951 255.51 321.306 249.708C321.065 247.613 316.874 245.035 315.504 243.504C313.571 241.409 311.717 239.313 309.703 237.299C305.754 233.351 301.161 229.08 295.843 227.226C291.814 225.857 284.562 226.582 283.272 231.82C277.471 255.752 271.749 280.006 266.27 303.455ZM303.256 255.913V259.459C303.095 258.33 303.095 257.122 303.256 255.913Z" fill="#FF6548"/>
<path d="M260.71 329.805C263.611 324.406 272.072 323.44 276.745 318.041C280.372 318.766 284.804 319.169 289.558 317.315C289.799 317.396 290.122 317.396 290.364 317.557C294.07 331.578 256.359 339.717 260.71 329.805Z" fill="black"/>
<path d="M326.141 252.932C318.728 250.514 312.523 242.376 306.157 236.735C275.859 213.931 278.599 256.397 274.006 272.432" stroke="#081132" stroke-miterlimit="10"/>
<path d="M363.047 210.063C366.512 219.249 361.838 226.904 352.41 223.842C336.052 217.879 325.738 154.785 352.571 180.329C357.003 189.515 359.904 200.152 363.047 210.063Z" fill="#EB906E"/>
<path d="M342.58 163.729C346.931 165.583 349.268 169.692 351.121 173.802C352.007 175.816 352.894 177.831 353.619 179.845C354.425 182.102 355.875 184.519 356.117 186.856C356.117 187.178 356.117 187.581 355.956 187.903C355.795 188.145 355.634 188.306 355.472 188.467C352.733 190.643 349.993 192.738 346.77 194.189C345.803 194.591 344.916 195.075 343.949 195.558C342.741 196.203 341.854 197.17 340.646 197.976C340.001 198.379 339.356 198.701 338.712 199.023C339.115 199.265 339.356 199.749 339.517 200.152C341.29 205.067 342.257 210.224 343.305 215.301C343.788 217.396 344.594 220.216 343.949 222.392C343.466 224.003 342.015 224.487 340.565 224.728C337.584 225.212 334.522 225.051 331.459 225.212C326.947 225.373 322.434 225.857 317.922 226.179C292.62 228.274 292.62 224.164 289.155 201.683C282.144 158.814 309.381 149.225 342.58 163.729Z" fill="#FFB413"/>
<path d="M302.773 190.965C305.593 233.431 287.14 226.824 287.14 216.671C281.822 163.488 303.74 166.872 302.773 190.965Z" fill="#F06D5A"/>
<path d="M297.777 191.369C302.047 190.885 306.318 190.321 310.589 189.757C309.3 179.523 312.442 163.407 306.318 155.833C285.126 152.771 287.382 178.879 284.4 192.819C288.832 192.416 293.345 191.933 297.777 191.369Z" fill="#FFB413"/>
<path d="M312.845 131.417C324.529 137.944 314.134 155.51 323.885 160.264C318.325 162.359 312.201 162.843 306.399 161.715C306.64 161.795 306.479 158.008 306.479 157.766C306.238 155.188 304.384 155.268 302.37 154.543C301.161 154.14 300.113 153.173 299.388 152.126C297.051 148.822 296.246 144.229 295.762 140.28C295.359 137.138 295.762 134.076 298.099 131.739C299.469 130.369 300.839 130.369 302.531 129.644C304.304 128.758 305.593 128.758 307.607 129.241C309.461 129.644 311.234 130.45 312.845 131.417Z" fill="#EB906E"/>
<path d="M298.583 136.735C299.147 136.252 299.792 135.688 300.436 135.365C301.081 135.043 302.37 134.721 303.015 135.285C303.498 135.688 303.337 136.09 303.418 136.655C303.579 138.347 304.707 138.991 306.319 137.944C307.124 137.46 308.011 136.735 308.897 137.138C310.186 137.622 309.622 138.991 309.945 139.878C310.428 141.167 311.476 142.698 312.362 143.746C313.571 145.196 315.021 146.888 316.794 147.855C322.193 150.675 320.984 142.376 321.951 139.878C322.273 139.153 322.596 138.508 322.676 137.702C322.837 135.929 321.387 134.64 319.937 133.512C319.695 133.351 319.453 133.19 319.292 132.948C319.131 132.787 318.889 132.626 318.808 132.384C318.567 131.739 319.614 130.289 319.695 129.483C319.775 128.032 318.728 126.34 317.6 125.454C316.069 124.165 313.893 123.842 311.959 124.487C311.153 124.809 310.267 125.293 309.461 124.97C308.333 124.487 308.494 123.117 307.527 122.392C306.641 121.747 305.352 121.667 304.465 122.311C304.062 122.634 303.74 123.037 303.257 123.278C302.29 123.842 301 123.52 299.872 123.601C298.583 123.681 297.374 124.406 296.73 125.454C296.165 126.26 295.924 127.227 295.198 127.871C294.393 128.597 293.345 128.677 292.378 129.161C289.961 130.289 288.913 133.673 290.283 136.01C291.653 138.347 295.037 139.153 297.374 137.783C297.616 137.541 298.099 137.138 298.583 136.735Z" fill="black"/>
<path d="M315.585 140.684C316.23 141.49 316.552 142.537 316.472 143.665C316.391 144.874 315.666 146.002 314.618 146.566C309.945 148.983 305.996 140.764 311.476 139.314C313.087 138.83 314.618 139.556 315.585 140.684Z" fill="#EB906E"/>
<path d="M338.067 199.83C336.294 196.284 333.393 192.416 331.701 188.79" stroke="black" stroke-width="0.5" stroke-miterlimit="10"/>
<path d="M321.87 225.857C313.973 226.824 305.351 227.791 297.777 225.615C305.996 213.125 308.091 220.297 319.936 218.041C366.351 195.639 370.944 221.989 357.487 224.326C345.239 224.729 334.038 224.245 321.87 225.857Z" fill="#EB906E"/>
<path d="M262.402 162.198C262.321 162.601 262.402 163.004 262.644 163.326C261.757 163.568 261.435 164.777 261.919 165.502C261.999 165.583 261.999 165.583 261.999 165.663C261.999 165.744 261.919 165.824 261.919 165.905C260.79 167.436 263.772 169.612 264.578 170.418C265.786 171.546 267.237 172.271 268.929 172.432C270.379 178.959 271.749 185.486 272.877 192.094C274.167 199.426 276.02 209.096 284.803 210.546C285.851 210.708 287.301 210.949 288.349 210.708C295.52 209.096 289.316 194.028 287.865 190.321C285.851 184.922 283.353 179.684 280.774 174.527C279.566 172.11 278.196 169.692 276.906 167.355C276.342 166.308 275.698 165.18 275.053 164.132C274.167 162.762 273.039 161.634 272.555 160.023C272.394 159.459 272.233 158.814 272.152 158.169C272.072 157.122 272.152 155.994 272.233 154.866C272.233 154.704 272.233 154.463 272.152 154.382C271.991 154.221 271.749 154.221 271.508 154.301C271.346 154.382 271.185 154.624 271.024 154.785C270.299 156.074 269.815 157.525 269.574 158.975C269.493 159.297 269.493 159.539 269.413 159.862C267.962 158.975 264.9 156.074 263.691 158.814C263.45 159.378 263.45 160.023 263.772 160.587C263.208 160.667 262.724 161.07 262.483 161.554C262.402 161.876 262.402 162.037 262.402 162.198Z" fill="#EB906E"/>
<path d="M298.26 182.102C299.066 186.372 298.986 192.899 299.469 198.137" stroke="black" stroke-width="0.5" stroke-miterlimit="10"/>
<path d="M263.45 170.901L262.886 174.447L264.82 171.465L263.45 170.901Z" fill="#4B789B"/>
<path d="M342.016 210.063C345.078 210.385 348.059 211.111 350.879 212.319" stroke="black" stroke-width="0.5" stroke-miterlimit="10"/>
<path d="M272.797 148.822C270.621 154.463 266.27 165.744 264.094 171.385" stroke="black" stroke-width="3" stroke-miterlimit="10"/>
<path d="M301.161 149.95C302.37 149.789 303.579 149.306 304.465 148.419" stroke="black" stroke-miterlimit="10"/>
<path d="M304.545 155.591C304.545 155.511 304.545 155.43 304.465 155.43C306.318 155.188 308.252 154.705 309.783 153.818C309.139 155.188 306.963 157.283 305.351 158.814C305.432 158.331 305.271 156.558 304.545 155.591Z" fill="black"/>
<path d="M314.941 142.537C314.215 141.247 312.604 140.603 311.234 141.086C310.67 141.328 310.106 141.731 310.025 142.295" stroke="black" stroke-width="0.5" stroke-miterlimit="10"/>
<path d="M312.04 141.086C313.007 141.489 313.49 142.698 313.087 143.584" stroke="black" stroke-width="0.5" stroke-miterlimit="10"/>
<path d="M264.981 157.847C266.753 157.928 268.446 158.492 269.977 159.459C270.299 159.701 270.621 159.942 270.621 160.265C270.702 160.909 269.896 161.232 269.251 161.312C268.284 161.393 267.317 161.393 266.431 161.151C265.786 160.99 265.061 160.748 264.658 160.184C264.255 159.62 264.255 158.734 264.82 158.331" fill="#EB906E"/>
<path d="M269.413 164.535C269.171 166.389 268.526 170.498 266.431 170.498C266.028 170.498 265.706 170.337 265.303 170.176C264.82 169.934 264.255 169.773 263.772 169.531C263.53 169.451 263.288 169.29 263.047 169.128C262.08 168.484 261.919 167.033 262.241 165.825C262.563 164.616 263.611 161.634 265.061 161.473C265.384 161.393 265.706 161.473 266.028 161.554C266.834 161.715 267.64 161.957 268.446 162.118C268.687 162.199 268.929 162.279 269.171 162.44C269.654 162.843 269.574 163.488 269.493 164.052C269.493 164.294 269.413 164.455 269.413 164.535Z" fill="#EB906E"/>
<path d="M376.665 214.414C341.854 199.507 298.422 232.303 316.713 265.583" stroke="black" stroke-width="3" stroke-miterlimit="10"/>
<path d="M269.977 159.298C270.218 159.54 270.541 159.62 270.702 159.862C271.024 160.265 270.783 160.829 270.46 161.151C270.057 161.474 269.574 161.554 269.09 161.554" stroke="black" stroke-width="0.5" stroke-miterlimit="10"/>
<path d="M266.189 170.257C266.592 170.418 267.076 170.498 267.559 170.579C268.043 170.66 268.687 170.579 268.929 170.176C269.251 169.612 268.768 169.048 268.365 168.564C269.01 168.564 269.816 168.403 270.057 167.759C270.218 167.356 270.057 166.792 269.816 166.469C269.493 166.066 269.09 165.825 268.687 165.583C269.413 165.502 270.138 165.341 270.541 164.858C270.783 164.535 270.863 164.052 270.702 163.568C270.541 163.166 270.138 162.843 269.735 162.763" stroke="black" stroke-width="0.5" stroke-miterlimit="10"/>
<path d="M377.551 226.663L387.221 332.384" stroke="black" stroke-miterlimit="10"/>
<path d="M383.756 222.956H235.408V227.871H383.756V222.956Z" fill="#AEADA5"/>
<path d="M258.454 223.037H321.548C322.354 223.037 323.079 222.392 323.079 221.506C323.079 220.7 322.434 219.975 321.548 219.975H258.454C257.648 219.975 256.923 220.619 256.923 221.506C256.923 222.311 257.648 223.037 258.454 223.037Z" fill="black"/>
<path d="M256.762 223.037H313.248L308.333 190.563C308.172 189.435 307.205 188.629 306.077 188.629H254.022C252.652 188.629 251.685 189.838 251.846 191.207L256.762 223.037Z" fill="black"/>
<path d="M277.148 203.456C277.148 204.987 278.357 206.195 279.888 206.195C281.419 206.195 282.628 204.987 282.628 203.456C282.628 201.925 281.419 200.716 279.888 200.716C278.357 200.796 277.148 202.005 277.148 203.456Z" stroke="#3FA8B4" stroke-miterlimit="10"/>
<path d="M72.9582 144.229C73.3611 145.277 73.3611 146.485 74.0058 147.452C74.3281 147.855 74.731 148.258 75.0533 148.661C75.7785 149.628 75.7785 150.998 75.7785 152.207C75.7785 152.69 75.7785 153.093 75.6174 153.496C75.4562 153.899 75.1339 154.221 74.8116 154.543C73.4417 155.591 71.5884 155.752 69.8962 155.671C68.5263 155.591 67.0759 155.269 65.9477 154.543C64.8196 153.818 63.7721 152.609 63.6109 151.24C63.3692 149.386 64.6585 147.613 66.0283 146.324C67.237 145.196 68.6069 143.987 69.8962 142.94C71.1049 141.973 72.4747 142.698 72.9582 144.229Z" fill="black"/>
<path d="M70.7019 272.029V331.739" stroke="black" stroke-width="4" stroke-miterlimit="10"/>
<path d="M91.7333 331.175H49.5898" stroke="black" stroke-width="5" stroke-miterlimit="10"/>
<path d="M133.957 290.643C136.858 288.548 138.309 287.662 140.968 285.325C146.206 299.346 157.003 322.392 158.373 326.421C154.586 328.355 152.007 330.934 147.978 332.465C137.583 320.942 134.844 311.756 123.321 297.976C126.947 295.639 130.492 293.141 133.957 290.643Z" fill="#EF8C72"/>
<path d="M63.9329 283.633C51.443 282.343 40.4035 277.267 31.3786 268.645C21.8701 259.62 17.8411 245.196 14.9402 232.787C12.3616 221.747 10.6695 210.385 12.1199 199.104C13.5703 187.903 18.4857 176.703 27.269 169.612C30.7339 166.791 34.9241 164.616 39.356 164.616C43.8685 164.616 48.1392 166.872 51.443 169.934C54.7468 173.077 57.0836 176.944 59.2593 180.974C64.0135 189.676 67.962 199.023 71.8298 208.129C75.3753 216.509 78.7597 225.454 85.5284 231.9C93.4253 241.57 104.868 245.679 115.182 251.642C145.158 288.306 83.7557 289.032 63.9329 283.633Z" fill="#52A1BF"/>
<path d="M37.1805 244.954C36.8582 243.746 36.4553 242.537 35.8912 241.328C35.0854 239.556 33.9573 237.702 34.199 235.768C34.4408 233.754 36.133 232.223 37.8251 231.095C42.3376 228.113 51.282 224.971 56.6003 226.905C58.4537 227.63 59.9847 229 61.5963 230.208C76.7454 241.409 97.6156 235.93 114.296 242.859C127.511 248.339 135.166 262.279 140.162 274.93C144.594 286.292 150.637 296.687 154.505 308.291C147.092 311.03 137.745 314.979 130.331 317.718C129.767 317.96 129.203 318.121 128.558 318.041C127.189 317.88 126.463 316.429 125.899 315.14C120.742 302.73 115.585 290.321 110.347 277.912C106.399 268.403 92.0556 272.029 83.353 271.546C75.6978 271.143 66.9146 271.465 59.5012 269.451C52.8936 267.598 46.0443 264.616 41.8542 258.975C38.5504 254.705 38.4698 249.709 37.1805 244.954Z" fill="#FFB413"/>
<path d="M34.7632 242.054C35.2467 243.343 35.4884 244.31 35.8913 244.874C108.011 243.101 70.9437 224.971 86.0122 186.776C88.5907 182.182 89.1548 176.945 85.2869 171.465C65.9477 153.738 39.1145 163.971 36.2136 189.918C25.4965 217.638 28.075 223.762 34.7632 242.054Z" fill="#FF6548"/>
<path d="M160.226 323.117C201.242 319.007 165.867 333.431 151.604 336.977C148.462 337.219 146.689 332.223 144.191 329.08C157.084 327.791 152.007 314.898 160.226 323.117Z" fill="black"/>
<path d="M148.301 265.341C148.945 256.316 148.139 246.808 142.982 239.314C135.891 228.999 122.515 225.373 110.186 223.6C102.773 222.553 94.3924 221.989 87.3013 225.051C79.6462 228.435 76.5842 236.171 69.7349 240.522C83.9976 243.504 95.2788 254.704 105.674 264.213C110.428 268.564 115.021 272.754 120.742 275.736C128.478 279.684 134.28 287.581 140.404 293.866C145.239 285.889 147.334 276.542 148.139 267.275C148.22 266.63 148.301 265.986 148.301 265.341Z" fill="#FFB413"/>
<path d="M37.1 173.157C26.1411 190.804 10.1862 253.496 47.8172 223.117C52.8937 204.342 57.1645 183.472 53.8607 163.891C46.689 164.938 41.2902 168.403 37.1 173.157Z" fill="#FF6548"/>
<path d="M54.0217 187.259C44.9161 191.207 48.3005 215.059 44.1909 221.344" stroke="#081132" stroke-width="0.5" stroke-miterlimit="10"/>
<path d="M15.3433 236.574C79.1628 219.652 94.7148 263.246 78.6793 285.244" stroke="black" stroke-width="3" stroke-miterlimit="10"/>
<path d="M109.381 241.651C98.8245 240.039 92.0558 241.49 78.5183 241.49" stroke="#081132" stroke-width="0.5" stroke-miterlimit="10"/>
<path d="M45.5609 215.059C77.3094 226.179 91.7333 217.396 90.6858 228.999C70.6213 229.483 49.4287 232.303 28.8002 231.497C13.5705 219.249 35.6495 212.319 45.5609 215.059Z" fill="#EB906E"/>
<path d="M11.9589 230.933L1 335.526" stroke="black" stroke-miterlimit="10"/>
<path d="M115.746 142.456C117.922 138.024 120.742 134.076 123.24 129.805C123.482 129.805 124.932 127.146 125.174 126.743C125.899 125.534 126.463 124.245 127.269 123.036C128.8 120.7 130.573 118.443 132.587 116.509C132.99 116.107 133.474 115.704 134.038 115.542C134.441 116.026 134.118 116.751 133.796 117.315C133.071 118.766 131.459 120.619 131.298 122.231C131.621 122.231 132.023 122.15 132.346 122.311C132.668 122.392 132.99 122.714 132.99 123.036C132.99 123.278 132.91 123.52 133.071 123.681C133.232 123.762 133.393 123.762 133.554 123.681C133.957 123.681 134.36 124.003 134.441 124.487C134.521 124.89 134.521 125.373 134.441 125.776C134.844 125.615 135.327 126.018 135.408 126.501C135.488 126.985 135.327 127.388 135.085 127.791C134.199 129.644 132.91 132.061 130.976 132.948C130.815 133.028 130.654 133.109 130.573 133.19C130.492 133.27 130.412 133.351 130.412 133.431C128.8 136.654 128.156 140.361 127.189 143.907C126.06 147.694 124.852 151.401 123.724 155.188C122.193 160.264 120.581 165.583 116.794 169.37C114.537 171.626 111.475 173.157 108.333 172.835C105.754 172.513 103.337 170.579 102.773 168.081C102.048 165.18 103.901 163.649 105.432 161.231C109.542 155.269 112.604 148.822 115.746 142.456Z" fill="#EB906E"/>
<path d="M149.832 228.194H6.15723V233.109H149.832V228.194Z" fill="#AEADA5"/>
<path d="M129.928 228.194H62.5634C61.9188 228.194 61.3547 227.63 61.3547 226.985V226.26C61.3547 225.615 61.9188 225.051 62.5634 225.051H129.928C130.573 225.051 131.137 225.615 131.137 226.26V226.985C131.218 227.63 130.654 228.194 129.928 228.194Z" fill="black"/>
<path d="M131.379 228.194H71.7495L76.9066 193.947C77.0678 192.738 78.1153 191.852 79.2435 191.852H134.199C135.65 191.852 136.697 193.141 136.455 194.592L131.379 228.194Z" fill="black"/>
<path d="M109.38 208.935L111.959 211.111" stroke="#3FA8B4" stroke-miterlimit="10"/>
<path d="M105.996 208.935L108.574 211.111" stroke="#081132" stroke-width="0.5" stroke-miterlimit="10"/>
<path d="M102.531 208.935L105.11 211.111" stroke="#3FA8B4" stroke-miterlimit="10"/>
<path d="M111.878 160.748C111.637 160.426 111.395 160.023 111.073 159.781C107.769 156.477 101.403 158.089 97.4545 159.056C92.378 160.345 87.0597 162.279 81.9025 162.843C80.6132 163.004 69.6543 163.488 69.6543 163.488C69.4932 164.616 69.4126 165.824 69.4126 166.953C69.8155 171.868 70.5407 176.783 71.3465 181.618C72.1523 186.614 72.2329 188.387 77.4706 187.339C86.0121 185.647 93.7478 182.182 102.048 180.007C104.626 179.362 107.285 178.637 109.703 177.428C111.073 176.703 112.362 175.816 113.248 174.608C114.538 172.835 115.021 170.579 114.779 168.403C114.538 166.227 113.812 164.213 112.765 162.279C112.442 161.715 112.201 161.231 111.878 160.748Z" fill="#FF6548"/>
<path d="M71.6689 138.669C71.266 137.299 70.7019 136.01 70.0573 134.801C69.735 134.157 64.1749 135.124 63.4497 135.285C61.4352 135.607 59.5013 136.171 57.7285 137.219C53.9412 139.475 52.4102 143.746 53.6189 147.936C54.183 149.789 54.9888 151.642 55.2305 153.576C55.7946 154.14 56.4392 154.704 57.0839 155.188C57.4868 155.349 57.8091 155.671 58.0508 155.994C58.212 156.155 58.2926 156.477 58.2926 156.719C59.5818 156.961 60.8711 157.202 62.0798 157.605C63.3691 158.008 64.1749 158.653 65.5448 158.411C67.801 158.008 69.4932 156.236 70.6213 154.382C73.1999 149.789 73.1193 143.665 71.6689 138.669Z" fill="#EB906E"/>
<path d="M59.4209 170.256C61.7578 170.74 64.3363 170.579 66.512 169.692C68.4459 168.806 70.1381 167.194 70.7022 165.099C69.574 165.18 68.5265 164.374 67.9624 163.407C67.3984 162.44 67.2372 161.312 67.1566 160.184C67.1566 159.297 67.1566 158.411 67.2372 157.525C67.3178 156.88 67.8819 155.51 67.7207 154.946C67.3984 153.898 64.9004 153.173 63.9334 152.77C62.4024 152.126 60.7102 151.723 59.0986 151.4C58.6957 151.32 54.5861 151.078 54.5055 150.998C55.4725 154.301 55.7142 157.766 55.0696 161.151C54.9084 161.795 54.8279 162.44 54.425 162.923C53.6192 164.132 52.0881 164.374 50.6377 164.616C52.491 167.194 55.2308 168.967 58.2928 169.934C58.6957 170.095 59.018 170.176 59.4209 170.256Z" fill="#EB906E"/>
<path d="M45.3996 152.126C45.7219 153.576 46.9306 154.704 48.1394 155.51C50.0733 156.638 52.4907 157.041 54.5052 156.155C55.9556 155.51 57.3255 153.657 57.5672 152.045C57.6478 151.481 57.5672 150.998 57.6478 150.433C57.809 149.708 58.1313 149.064 58.6954 148.661C59.34 148.177 60.1458 147.936 60.4681 147.21C60.9516 146.324 60.6293 145.035 61.5962 144.471C62.5632 143.906 63.7719 144.229 64.8195 143.342C65.5447 142.698 65.9476 141.65 66.834 141.167C68.365 140.361 70.2183 141.811 71.9911 141.489C72.7969 141.328 73.4415 140.844 74.0056 140.28C75.1337 138.991 75.6978 136.977 74.9726 135.446C74.4891 134.479 73.6027 133.834 72.6357 133.27C71.7494 132.786 70.7824 132.384 69.8154 132.303C67.7203 132.142 66.1893 133.673 64.0137 133.35C61.9991 133.028 59.9041 133.673 58.2119 134.801C56.7614 135.768 55.7139 136.977 54.5858 138.266C53.5382 139.475 52.3295 138.911 50.9597 139.636C49.9927 140.119 49.2675 141.086 49.1063 142.134C48.9452 142.859 49.1063 143.665 48.9452 144.39C48.9452 144.551 48.8646 144.712 48.784 144.873C48.7034 145.035 48.4617 145.115 48.3005 145.276C46.286 146.243 44.8356 149.869 45.3996 152.126Z" fill="black"/>
<path d="M54.2636 151.078C55.3917 154.14 61.1129 153.415 60.1459 148.903C59.0178 145.841 53.216 146.566 54.2636 151.078Z" fill="#EB906E"/>
<path d="M59.0178 149.225C58.6149 148.58 57.8091 148.097 57.0033 148.097C56.1975 148.097 55.3917 148.58 54.9888 149.225" stroke="#081132" stroke-width="0.5" stroke-miterlimit="10"/>
<path d="M57.4062 148.177C56.8421 148.419 56.4392 148.902 56.2781 149.467C56.1169 150.031 56.2781 150.675 56.681 151.159" stroke="#081132" stroke-width="0.5" stroke-miterlimit="10"/>
<path d="M65.7058 151.481C66.0281 152.448 66.8339 153.254 67.8815 153.415C68.8484 153.577 69.9766 153.093 70.5406 152.287" fill="white"/>
<path d="M69.4931 156.638C67.4786 157.927 64.8195 158.169 62.5632 157.283C62.7244 157.847 63.2079 158.25 63.7719 158.492C65.7864 159.539 68.1233 159.781 70.2989 159.136" fill="black"/>
<path d="M157.567 333.109V386.695" stroke="black" stroke-width="4" stroke-miterlimit="10"/>
<path d="M132.829 385.486H181.016" stroke="black" stroke-width="4" stroke-miterlimit="10"/>
<path d="M182.869 209.822C182.789 209.983 182.789 210.064 182.708 210.225C181.499 214.415 188.752 216.832 191.652 218.283C192.619 218.766 193.667 219.169 194.715 219.008C196.004 218.847 197.051 217.799 197.938 216.832C200.919 213.69 203.901 210.467 206.882 207.324C213.087 200.797 219.292 194.109 223.401 186.131C224.529 183.875 225.899 179.443 224.529 177.026C221.628 172.03 219.856 175.334 217.035 177.267C205.915 185.164 196.084 196.526 185.931 205.793C184.723 207.082 183.433 208.291 182.869 209.822Z" fill="#EB906E"/>
<path d="M174.408 211.514C169.574 213.286 164.819 215.14 159.985 216.913C157.325 217.88 154.586 218.927 152.571 220.942C148.462 224.89 148.139 234.398 153.619 237.461C159.985 241.006 172.877 237.461 179.082 234.963C183.353 233.27 187.382 230.934 190.766 227.791C192.297 226.34 193.989 224.729 195.359 223.198C196.246 222.231 197.696 217.718 198.099 217.477C198.744 216.993 199.711 217.154 200.436 216.832C200.919 216.59 201.564 216.107 201.967 215.784C202.37 215.382 202.692 214.817 202.531 214.253C202.531 214.173 202.45 214.012 202.45 213.931C202.531 213.689 202.853 213.689 203.095 213.77C204.062 213.851 204.787 212.964 205.029 212.078C205.512 209.499 203.498 205.954 202.128 203.859C200.919 201.925 199.469 199.749 197.616 198.299C196.568 197.493 195.601 196.203 194.151 196.123C193.022 196.042 191.975 196.606 191.33 197.493C190.686 198.46 190.605 199.749 190.283 200.877C190.202 201.199 190.041 201.522 189.719 201.683C189.477 201.763 189.235 201.683 188.993 201.683C188.026 201.602 187.543 202.166 186.737 202.489C185.851 202.892 184.884 202.892 184.32 203.859C183.917 204.503 183.836 205.309 183.595 206.034C182.305 209.66 177.47 210.386 174.408 211.514Z" fill="#FFB413"/>
<path d="M197.696 260.668H264.175C264.497 260.668 264.82 260.426 264.9 260.104L272.797 221.748C272.878 221.345 272.555 220.861 272.072 220.861H205.593C205.271 220.861 204.949 221.103 204.868 221.425L196.971 259.782C196.89 260.265 197.213 260.668 197.696 260.668Z" fill="black"/>
<path d="M200.517 259.862H261.435C261.758 259.862 261.999 259.62 262.08 259.379L269.332 224.729C269.413 224.326 269.09 224.004 268.688 224.004H207.769C207.447 224.004 207.205 224.246 207.124 224.487L199.872 259.137C199.791 259.459 200.114 259.862 200.517 259.862Z" fill="#4B789B"/>
<path d="M266.028 263.73H182.386C181.5 263.73 180.774 263.005 180.774 262.118C180.774 261.232 181.5 260.507 182.386 260.507H266.028C266.915 260.507 267.64 261.232 267.64 262.118C267.64 263.005 266.915 263.73 266.028 263.73Z" fill="black"/>
<path d="M228.559 260.426H214.538V261.716H228.559V260.426Z" fill="black"/>
<path opacity="0.65" d="M259.824 245.277C259.582 244.632 259.26 243.988 258.776 243.504C258.051 242.698 257.084 242.054 256.036 241.973C256.278 241.731 256.198 241.006 256.278 240.603C256.762 238.589 255.875 236.333 254.102 235.124C252.491 234.076 250.476 234.076 248.784 234.882C247.656 235.446 247.575 233.351 247.253 232.545C246.689 231.256 245.883 229.967 244.675 229.08C242.982 227.791 240.726 227.469 238.712 227.791C236.617 228.113 234.763 229.161 233.071 230.45C230.815 216.59 231.298 202.005 230.17 187.984C230.17 187.501 230.09 187.017 229.848 186.615C229.525 186.212 229.042 185.97 228.559 185.728C227.269 185.164 225.899 184.6 224.61 184.036C224.207 183.875 223.724 183.714 223.321 183.875C222.676 184.117 222.515 184.922 222.434 185.567C221.629 191.852 219.936 198.379 219.936 204.745C219.936 207.646 219.453 210.627 219.211 213.448C218.728 219.169 218.083 224.971 217.519 230.692C217.6 229.806 215.263 228.516 214.618 228.275C213.248 227.71 211.637 227.952 210.347 228.597C208.091 229.725 206.399 231.981 206.077 234.479C205.674 234.076 204.949 233.996 204.304 234.076C201.242 234.318 198.422 236.252 196.971 238.911C195.521 241.731 195.198 245.68 196.165 248.742C196.81 250.756 198.18 252.69 200.114 253.657C201.886 254.624 203.982 254.785 205.915 254.302C206.802 254.06 207.608 253.738 208.413 253.335C209.058 253.013 209.783 252.207 210.428 251.965C211.314 251.643 211.314 252.287 211.959 253.093C212.442 253.657 212.926 254.221 213.49 254.705C214.054 255.188 214.618 255.672 215.182 256.075C216.31 256.8 217.438 257.364 218.728 257.767C219.936 258.17 221.226 258.492 222.515 258.653C225.335 258.895 228.156 258.17 230.734 257.122C231.459 256.8 232.104 256.478 232.749 256.075C233.393 255.591 233.716 255.027 234.199 254.463C235.247 255.188 236.052 255.914 237.342 256.236C238.47 256.478 239.679 256.558 240.807 256.236C241.613 255.994 242.499 255.591 243.144 255.027C243.305 254.866 244.836 253.093 244.755 252.932C248.704 257.686 257.164 256.236 259.824 250.837C260.388 249.225 260.468 247.13 259.824 245.277Z" fill="#F7FAFB"/>
<path d="M250.396 243.504C251.685 241.973 252.088 239.636 251.121 237.864C250.315 236.252 248.704 235.124 246.931 234.963C246.125 234.882 245.319 234.963 244.594 235.285C244.433 234.721 244.191 234.157 243.869 233.593C242.66 231.82 240.565 230.692 238.47 230.531C236.375 230.37 234.36 231.176 233.071 232.787C232.426 233.512 231.862 234.399 231.701 235.366C231.621 235.607 231.621 235.849 231.621 236.091C231.379 236.01 231.057 235.93 230.734 235.849C229.767 235.769 228.881 236.091 228.156 236.655C228.236 234.882 228.075 233.271 228.075 231.498C228.075 228.436 228.156 225.293 228.156 222.231C228.236 209.983 227.994 197.735 227.35 185.487C227.35 185.084 227.269 184.6 227.028 184.278C226.786 184.036 226.544 183.875 226.222 183.714C225.335 183.311 224.368 182.827 223.482 182.425C223.321 182.344 223.079 182.263 222.837 182.344C222.596 182.425 222.515 182.747 222.515 183.069C221.709 190.321 221.306 197.574 220.339 204.745C219.372 212.078 218.164 219.411 216.955 226.663C215.021 224.165 210.428 224.81 208.091 226.905C205.916 228.839 205.916 232.142 207.044 234.882C205.996 235.527 204.626 236.171 203.901 236.977C202.692 238.347 201.887 239.959 201.564 241.732C200.92 245.599 202.773 249.709 206.157 251.723C209.542 253.738 214.054 253.416 217.116 250.998C217.68 254.705 221.065 257.767 224.852 257.928C226.786 258.009 228.639 257.283 230.09 256.155C230.734 255.672 232.104 254.302 232.668 253.093C235.086 256.639 242.096 256.8 245.722 255.591C250.96 253.899 252.571 248.097 250.073 243.988C250.235 243.665 250.315 243.585 250.396 243.504Z" fill="#F7FAFB"/>
<path opacity="0.66" d="M192.136 244.23C192.297 244.31 192.459 244.391 192.62 244.471C192.378 244.633 192.297 244.955 192.378 245.277C192.459 246.244 193.748 246.969 194.634 247.05C196.246 247.131 197.293 245.197 196.246 243.907C195.762 243.343 194.957 243.182 194.312 243.424C194.795 243.263 193.748 242.215 193.587 242.135C193.023 241.973 192.297 242.457 191.975 242.94C191.814 243.182 191.733 243.424 191.733 243.666C191.733 243.907 191.895 244.069 192.136 244.23Z" fill="#F7FAFB"/>
<path d="M254.344 229.805C254.344 230.692 253.619 231.336 252.813 231.336C251.927 231.336 251.282 230.611 251.282 229.805C251.282 228.919 252.007 228.274 252.813 228.274C253.7 228.274 254.344 229 254.344 229.805Z" stroke="#081132" stroke-width="0.5" stroke-miterlimit="10"/>
<path d="M257.084 233.351C257.084 233.754 256.761 234.076 256.359 234.076C255.956 234.076 255.633 233.754 255.633 233.351C255.633 232.948 255.956 232.626 256.359 232.626C256.761 232.626 257.084 232.948 257.084 233.351Z" stroke="#081132" stroke-width="0.5" stroke-miterlimit="10"/>
<path d="M233.877 243.988C233.877 245.438 232.668 246.647 231.217 246.647C229.767 246.647 228.558 245.438 228.558 243.988C228.558 242.537 229.767 241.329 231.217 241.329C232.668 241.329 233.877 242.537 233.877 243.988Z" stroke="#081132" stroke-width="0.5" stroke-miterlimit="10"/>
<path d="M258.131 247.856C258.131 248.258 257.809 248.581 257.406 248.581C257.003 248.581 256.681 248.258 256.681 247.856C256.681 247.453 257.003 247.13 257.406 247.13C257.809 247.13 258.131 247.453 258.131 247.856Z" stroke="#081132" stroke-width="0.5" stroke-miterlimit="10"/>
<path d="M207.205 248.742C205.271 248.742 203.659 247.13 203.659 245.196C203.659 243.263 205.271 241.651 207.205 241.651" stroke="#081132" stroke-width="0.5" stroke-miterlimit="10"/>
<path d="M211.556 251.079C211.912 251.079 212.201 250.79 212.201 250.434C212.201 250.078 211.912 249.79 211.556 249.79C211.2 249.79 210.912 250.078 210.912 250.434C210.912 250.79 211.2 251.079 211.556 251.079Z" stroke="#081132" stroke-width="0.5" stroke-miterlimit="10"/>
<path d="M241.935 233.432C241.935 234.318 241.21 235.124 240.243 235.124C239.356 235.124 238.551 234.399 238.551 233.432C238.551 232.546 239.276 231.74 240.243 231.74C241.21 231.82 241.935 232.546 241.935 233.432Z" stroke="#081132" stroke-width="0.5" stroke-miterlimit="10"/>
<path d="M228.478 248.984C228.478 250.595 227.189 251.885 225.577 251.885C223.966 251.885 222.676 250.595 222.676 248.984" stroke="#081132" stroke-width="0.5" stroke-miterlimit="10"/>
<path d="M208.413 229.081C207.688 230.209 207.527 231.74 208.01 233.029C208.413 234.318 209.461 235.366 210.75 235.849" stroke="#081132" stroke-width="0.5" stroke-miterlimit="10"/>
<path d="M226.866 202.812V237.38" stroke="#081132" stroke-width="0.5" stroke-miterlimit="10"/>
<path d="M223.724 197.654L222.515 219.411" stroke="#081132" stroke-width="0.5" stroke-miterlimit="10"/>
<path d="M364.739 368.645L350.96 265.905" stroke="black" stroke-miterlimit="10"/>
<path d="M182.064 265.261L167.156 369.209" stroke="black" stroke-miterlimit="10"/>
<path d="M362.563 263.569H165.061V268.968H362.563V263.569Z" fill="#AEADA5"/>
<path d="M171.105 339.878C168.043 340.12 164.981 340.281 161.999 340.281C151.443 340.201 140.404 336.252 131.056 331.578C104.304 318.202 105.432 290.321 104.384 264.213C104.062 255.914 103.659 247.533 105.351 239.395C108.494 223.843 118.808 213.448 135.166 213.045C137.019 212.964 138.953 213.126 140.565 214.093C142.257 215.059 143.305 216.832 144.03 218.605C147.817 227.63 145.319 238.428 146.85 247.856C148.623 258.573 152.007 269.451 158.051 278.557C161.516 283.714 165.706 287.662 170.702 291.288C176.02 295.156 183.433 294.592 189.719 295.237C193.989 295.72 198.502 296.607 202.209 298.943C211.395 304.826 220.178 321.264 209.541 329.886C206.399 332.384 202.45 333.673 198.502 334.721C189.88 336.977 180.371 338.992 171.105 339.878Z" fill="#007DAA"/>
<path d="M336.213 241.57C337.18 241.167 338.228 240.845 339.276 240.523C339.84 233.593 336.858 225.938 330.251 229.08C330.412 229.644 330.573 230.209 330.653 230.773C330.815 231.417 330.895 232.062 330.895 232.707C330.895 233.029 330.815 233.432 330.734 233.754C330.653 234.157 330.573 234.479 330.089 234.64C329.928 234.721 329.686 234.64 329.606 234.479C328.639 233.271 328.397 231.82 328.236 230.289C327.833 230.531 327.511 230.853 327.108 231.175C320.661 236.655 316.068 243.988 313.087 252.046C311.153 257.203 309.864 262.682 309.219 268.162C308.655 272.513 307.527 278.718 308.736 282.989C309.058 284.036 309.783 285.003 310.831 285.164C311.878 285.406 313.087 284.6 313.087 283.553C313.329 286.292 316.391 285.889 317.761 284.358C328.236 272.916 335.569 258.653 338.792 243.504C336.375 244.632 333.877 245.519 331.137 245.841C330.734 245.922 330.331 245.438 330.653 245.035C332.104 243.424 334.199 242.376 336.213 241.57ZM319.856 259.056C318.002 262.038 316.552 256.881 316.23 255.752C315.988 254.947 315.182 252.932 315.907 252.207C316.31 251.885 316.874 251.804 317.358 251.885C317.841 252.046 318.244 252.368 318.566 252.771C319.533 253.899 320.017 255.35 320.178 256.881C320.339 257.686 320.259 258.412 319.856 259.056Z" fill="#006650"/>
<path d="M308.333 290.402C305.754 282.827 301.08 276.139 296.487 269.612C293.022 264.616 288.107 260.426 281.58 261.957C279.404 262.521 277.471 263.649 276.262 265.583C274.086 269.129 275.053 273.722 276.906 277.428C280.21 283.955 286.657 290.16 292.297 294.673C292.378 294.753 292.539 294.834 292.62 294.914C292.62 294.914 294.151 294.431 294.231 294.35C295.037 294.189 295.843 294.108 296.729 294.028C297.052 294.028 297.454 294.028 297.777 294.189C298.905 294.995 296.568 295.801 296.085 295.962C295.923 296.042 294.876 296.365 294.715 296.284C296.326 297.251 298.018 298.218 299.549 299.266C300.355 299.83 301.242 300.394 302.209 300.716C303.176 300.958 304.304 300.877 305.029 300.233C306.721 298.782 304.143 297.493 306.721 296.687C307.93 296.365 308.655 295.156 308.816 293.867C308.977 292.577 308.736 291.53 308.333 290.402ZM280.694 269.531C280.21 269.29 279.807 269.048 279.404 268.726C279.243 268.645 279.082 268.484 279.002 268.242C279.002 268.081 279.082 267.92 279.243 267.839C279.404 267.759 279.566 267.759 279.727 267.759C280.855 267.759 282.144 268.081 283.031 268.806C283.272 268.967 283.272 269.37 283.111 269.612C283.031 269.854 282.708 270.015 282.466 270.015C281.902 270.096 281.338 269.854 280.694 269.531ZM294.634 285.486C294.473 285.648 294.151 285.809 293.909 285.728C292.539 285.97 291.008 285.567 289.719 285.164C288.349 284.761 286.898 284.197 285.609 283.391C285.045 283.069 285.126 282.344 285.69 282.102C287.14 281.457 288.832 281.538 290.283 281.941C291.894 282.424 293.425 283.23 294.554 284.439C294.795 284.761 294.876 285.164 294.634 285.486ZM297.777 277.589C297.696 278.718 296.971 279.846 296.326 280.813C296.085 280.813 295.923 280.49 295.843 280.249C295.682 279.362 295.762 278.476 296.085 277.67C296.165 277.509 297.213 275.656 297.293 275.817C297.696 276.381 297.857 277.025 297.777 277.589ZM307.124 292.739C306.882 293.303 306.56 293.867 306.157 294.35C306.076 294.431 306.076 294.431 305.996 294.431C305.915 294.431 305.915 294.431 305.835 294.35C305.512 294.028 305.271 293.625 305.271 293.141C305.271 292.658 305.351 292.255 305.593 291.852C305.835 291.288 307.043 290.241 307.366 291.369C307.446 291.61 307.366 291.852 307.285 292.094C307.285 292.336 307.205 292.577 307.124 292.739Z" fill="#006650"/>
<path d="M350.154 273.158C349.509 273.4 348.945 273.641 348.22 273.641C348.139 273.641 347.978 273.641 347.898 273.561C347.817 273.48 347.817 273.4 347.817 273.319C347.736 272.513 348.462 271.788 349.187 271.466C349.832 271.224 351.685 271.305 352.088 270.821C352.652 270.257 351.846 268.726 351.363 268.323C350.476 267.598 349.187 267.84 348.059 268.162C346.044 268.726 344.03 269.451 342.015 270.338C341.935 270.338 342.499 275.495 342.338 276.139C342.015 277.026 340.404 278.073 339.678 277.026C339.517 276.703 339.517 276.381 339.517 276.059C339.598 274.689 339.759 273.238 339.598 271.869C334.199 274.205 329.445 277.912 325.416 282.425C324.449 283.553 322.354 285.326 322.354 286.857C322.354 287.743 323.079 288.871 323.16 289.838C323.321 290.886 323.321 292.014 323.16 293.061C323.16 293.303 322.998 293.625 322.837 293.706C322.434 293.867 322.193 293.303 322.112 292.9C321.79 291.288 321.709 289.677 321.548 288.065C318.083 291.53 316.23 297.251 315.102 301.844C314.86 302.973 313.006 307.646 314.135 308.371C314.618 308.694 322.112 305.471 323.321 305.148C329.687 303.617 335.811 300.152 340.162 294.753C342.821 291.45 345.4 287.985 347.414 284.278C349.106 281.297 351.927 276.381 351.685 272.836C351.282 272.755 350.799 272.997 350.154 273.158ZM335.488 280.813C335.408 282.586 334.28 284.842 333.635 285.728C333.393 285.97 332.99 286.292 332.829 286.051C332.749 285.97 332.749 285.809 332.749 285.728C332.668 285.245 332.668 284.278 332.829 284.036C332.668 282.425 332.346 280.33 333.635 279.04C333.957 278.718 334.441 278.476 334.763 278.718C335.408 279.201 335.569 279.927 335.488 280.813ZM345.964 283.15C344.191 284.117 342.338 285.245 340.323 285.487C339.678 285.567 337.825 285.648 337.503 284.761C337.1 283.714 338.953 282.666 339.678 282.344C341.612 281.458 343.707 280.974 345.803 280.974C346.286 280.974 346.85 281.055 347.011 281.458C347.334 282.022 346.689 282.666 346.125 282.989C346.125 283.069 346.044 283.069 345.964 283.15Z" fill="#006650"/>
<path d="M334.28 288.226C330.009 292.013 325.738 295.801 321.467 299.588C319.211 301.602 316.874 303.617 315.263 306.357C312.603 310.708 312.12 316.187 311.636 321.425" stroke="#1A0400" stroke-width="0.5" stroke-miterlimit="10"/>
<path d="M297.777 283.714C303.337 292.336 308.655 301.683 309.3 312.239C309.702 318.283 308.574 324.487 309.622 330.45" stroke="#1A0400" stroke-width="0.5" stroke-miterlimit="10"/>
<path d="M327.188 246.164C323.159 255.189 313.167 280.571 311.636 290.483C310.831 295.72 310.75 301.039 310.669 306.276C310.589 312.884 310.508 319.411 310.347 326.019" stroke="#1A0400" stroke-width="0.5" stroke-miterlimit="10"/>
<path d="M299.63 341.167C299.63 341.167 323.482 341.328 323.482 341.167L325.979 316.59H296.004C296.004 316.59 299.63 341.087 299.63 341.167Z" fill="#007DAA"/>
<path d="M307.043 359.862C309.219 357.042 311.637 354.302 314.457 352.126C313.409 351.24 312.362 350.273 311.395 349.306C305.512 343.504 300.114 337.461 293.748 332.223C293.667 332.465 292.458 335.043 292.378 335.285C289.799 340.442 287.785 343.424 285.529 348.662C292.056 353.899 299.227 357.848 305.915 361.232C306.238 360.829 306.641 360.346 307.043 359.862Z" fill="#F39982"/>
<path d="M333.313 336.736C333.232 335.446 332.265 334.399 331.056 334.157C329.284 333.754 327.833 335.043 326.625 336.171C324.127 337.622 321.951 340.603 319.775 342.537C318.002 344.229 316.068 347.13 313.893 348.259C313.087 348.661 312.039 348.823 311.234 348.339C310.992 348.178 302.289 359.701 303.176 360.587C305.754 363.408 310.992 365.744 313.893 366.792C314.779 367.114 315.746 366.792 316.23 365.986C319.453 360.91 322.596 355.752 325.658 350.595C327.35 347.775 328.961 344.955 330.654 342.134C331.459 340.684 333.474 338.508 333.313 336.736Z" fill="black"/>
<path d="M285.851 363.246C289.961 359.298 292.62 355.672 294.795 350.515C297.374 344.552 298.663 337.864 302.45 332.706C303.015 331.901 302.773 330.773 301.806 330.37C295.279 327.63 276.665 315.865 274.328 314.495C264.578 308.855 254.828 303.375 244.594 298.702C235.891 294.673 228.639 289.515 219.05 287.259C209.219 284.922 199.066 284.358 188.994 284.439C182.386 284.439 175.698 284.681 169.09 285.084C162.966 285.486 148.059 285.567 147.495 294.27C147.334 296.526 149.348 305.793 150.476 307.324C151.604 308.855 157.084 310.144 158.857 311.111C161.596 312.561 164.175 313.609 167.317 314.334C173.039 315.623 178.921 315.865 184.723 316.59C195.279 317.96 205.915 319.008 216.068 322.312C228.881 326.421 240.645 334.399 251.765 341.893C262.321 349.064 275.698 357.364 285.287 365.1C285.609 364.455 285.367 363.649 285.851 363.246Z" fill="#FF6548"/>
<path d="M147.656 195.156C147.656 194.995 147.656 194.753 147.736 194.592C148.139 190.16 147.736 186.131 149.912 182.183C151.927 178.476 157.648 173.077 162.321 173.722C166.431 174.286 168.929 180.893 170.138 184.197C171.427 187.582 172.475 192.336 171.105 195.801C169.815 198.863 164.417 198.54 164.336 202.086C164.175 207.727 164.014 213.367 163.852 219.008C163.852 219.894 163.772 220.861 163.369 221.748C161.677 225.374 150.234 222.956 147.575 221.264C142.821 218.202 144.352 213.528 145.48 208.855C146.447 204.342 147.172 199.749 147.656 195.156Z" fill="#EB906E"/>
<path d="M168.929 279.201C169.896 276.784 170.863 274.366 171.91 271.949C173.119 269.129 174.57 266.55 175.053 263.569C175.617 259.701 174.408 255.752 174.972 251.884C175.214 250.192 175.939 248.5 176.262 246.808C177.067 243.021 176.181 239.072 174.408 235.607C172.394 231.498 167.801 228.194 166.914 223.843C166.27 220.861 169.412 221.183 170.54 219.33C172.152 216.671 170.299 213.528 167.237 212.642C158.292 210.144 148.059 207.485 140.081 213.689C135.972 216.913 133.071 221.506 130.976 226.34C126.463 236.655 126.141 248.903 120.823 258.814C115.827 268.162 116.149 280.893 116.713 291.369C116.874 294.431 117.196 297.493 118.325 300.313C119.614 303.617 121.87 306.357 124.126 309.096C125.818 311.111 127.591 313.287 130.009 314.415C132.345 315.543 135.085 315.623 137.583 315.22C143.707 314.173 148.864 310.386 153.135 306.034C157.406 301.683 162.724 297.735 166.189 292.739C167.801 290.402 169.171 287.904 170.621 285.486C170.702 285.325 170.782 285.164 170.702 285.003C170.621 284.842 170.379 284.761 170.218 284.761C169.654 284.761 169.171 284.761 168.607 284.681C168.929 284.278 168.929 283.714 168.687 283.311C168.445 282.908 167.881 282.747 167.398 282.827C167.962 281.699 168.445 280.41 168.929 279.201Z" fill="#FFB413"/>
<path d="M264.255 374.608C262.402 366.55 261.596 358.412 260.871 350.192C260.629 350.273 260.468 350.354 260.226 350.354C254.747 352.126 249.348 354.141 243.949 356.236C246.528 364.455 249.429 372.755 251.927 380.491C252.249 381.457 253.135 382.505 253.458 383.472C254.022 385.164 252.571 385.889 254.102 386.776C255.392 387.501 256.923 387.42 258.292 387.259C265.464 386.453 265.545 380.652 264.255 374.608Z" fill="#F39982"/>
<path d="M287.946 380.491C288.027 380.41 288.027 380.41 288.107 380.329C288.832 379.363 288.832 377.912 288.107 376.945C287.14 375.575 285.287 375.414 283.675 375.334C280.855 374.608 277.229 375.092 274.328 374.931C271.911 374.85 268.446 375.495 266.109 374.769C265.222 374.447 264.417 373.883 264.175 372.997C264.094 372.674 250.315 376.3 250.476 378.476C250.879 382.908 252.007 385.648 253.055 388.307C253.297 388.871 253.941 389.193 254.505 389.113C260.549 387.823 266.592 386.454 272.636 384.923C275.778 384.117 279.002 383.311 282.144 382.505C283.836 382.022 286.737 381.861 287.946 380.491Z" fill="black"/>
<path d="M232.345 371.546C235.085 371.385 237.825 370.982 240.484 370.418C250.879 368.242 260.629 363.649 270.138 358.895C269.574 357.445 269.09 356.075 268.526 354.624C259.018 329.403 251.685 304.987 233.796 284.197C230.573 280.49 226.705 276.703 221.87 276.3C219.694 276.139 217.438 276.703 215.343 277.348C198.744 282.021 182.95 290.482 166.27 294.028C161.757 294.995 155.794 296.848 151.524 298.379C148.703 299.427 146.93 301.522 143.949 302.247C139.678 303.214 134.763 302.892 130.492 302.408C128.961 302.247 118.405 300.877 118.083 299.266C119.856 308.613 124.207 317.88 131.862 323.52C143.304 331.981 159.34 330.289 172.636 328.758C176.503 328.275 217.519 321.022 216.955 318.524C220.178 332.062 224.287 345.599 228.236 358.895C229.445 363.166 230.734 367.356 232.345 371.546Z" fill="#FF6548"/>
<path d="M163.127 166.067C161.435 166.309 159.904 167.114 158.454 168.001C153.458 170.982 149.106 175.172 145.883 180.007C144.916 181.538 143.949 183.15 144.11 185.003C144.191 186.856 145.077 189.032 145.4 190.885C145.722 192.336 146.528 193.867 147.253 195.076C148.542 197.332 150.799 199.749 153.619 198.541C155.472 197.735 156.52 196.204 157.809 194.753C158.857 193.545 160.065 192.658 160.71 191.127C161.999 188.307 161.435 182.666 164.336 180.974C165.223 180.41 166.27 180.329 167.156 179.846C168.043 179.363 168.768 178.234 168.285 177.348C168.123 177.026 167.882 176.784 167.962 176.462C168.043 176.3 168.123 176.22 168.285 176.059C169.09 175.334 170.38 173.48 170.057 172.271C169.816 171.385 167.72 170.579 166.995 171.385C168.043 170.257 169.09 168.968 168.123 167.598C167.237 166.309 165.142 165.986 163.691 166.067C163.369 165.986 163.289 165.986 163.127 166.067Z" fill="black"/>
<path d="M168.284 282.666C167.72 283.875 166.512 284.681 165.383 285.406C163.691 286.373 161.999 287.259 160.146 287.904" stroke="#081132" stroke-width="0.5" stroke-miterlimit="10"/>
<path d="M164.578 288.065C162.321 289.435 159.823 290.241 157.164 290.563" stroke="#081132" stroke-width="0.5" stroke-miterlimit="10"/>
<path d="M242.338 204.504C242.338 199.346 238.147 195.156 232.99 195.156H223.804C218.647 195.156 214.457 199.346 214.457 204.504H242.338Z" fill="#FF6548"/>
<path d="M241.693 196.607C246.125 188.146 248.865 175.978 248.865 162.521C248.865 136.897 227.188 116.107 227.188 116.107C227.188 116.107 207.124 136.897 207.124 162.521C207.124 175.978 211.234 188.146 215.666 196.607H241.693Z" fill="white"/>
<path d="M233.232 122.473C229.767 118.444 227.188 116.107 227.188 116.107C227.188 116.107 224.771 118.444 221.628 122.473H233.232Z" fill="#FF6548"/>
<path d="M239.92 153.093C239.84 146.486 234.199 141.248 227.511 141.732C221.87 142.135 217.277 146.647 216.794 152.288C216.471 156.317 218.244 159.943 221.065 162.28C222.837 163.73 224.046 165.664 224.288 167.92L225.013 174.125L232.185 174.044L232.749 167.84C232.91 165.583 234.038 163.569 235.73 162.118C238.389 159.862 240.001 156.639 239.92 153.093Z" fill="#FFB413"/>
<path d="M226.866 170.096C226.222 167.275 225.577 164.455 225.013 161.635C224.449 159.056 223.24 156.316 222.998 153.738C222.918 152.61 224.207 152.61 224.932 153.093C225.174 153.254 225.416 153.577 225.335 153.899C225.255 154.221 225.013 154.463 224.691 154.383C224.449 154.302 224.368 153.899 224.368 153.657C224.449 152.932 225.255 152.287 225.98 152.449C226.705 152.529 227.35 153.335 227.189 154.141C227.108 154.463 226.705 154.866 226.463 154.624C226.383 154.544 226.302 154.463 226.302 154.383C226.061 153.657 226.544 152.852 227.189 152.61C227.833 152.368 228.72 152.61 229.203 153.093C229.364 153.335 229.525 153.577 229.525 153.899C229.525 154.221 229.284 154.463 229.042 154.544C228.639 154.624 228.317 154.221 228.317 153.818C228.317 153.416 228.559 153.093 228.881 152.852C229.445 152.368 230.251 152.207 230.895 152.529C231.54 152.852 231.862 153.818 231.379 154.383C231.298 154.544 231.137 154.624 230.895 154.624C230.412 154.705 230.17 153.98 230.251 153.577C230.412 152.771 231.218 152.207 232.023 152.287C234.28 152.449 233.152 155.108 232.91 156.478C232.588 158.331 232.265 160.184 231.943 162.038C231.459 164.616 231.057 167.195 230.573 169.854" stroke="#1B203F" stroke-width="0.5" stroke-miterlimit="10"/>
<path d="M228.72 175.011C227.189 175.092 225.174 175.253 224.449 173.641C223.885 172.352 223.885 170.579 224.046 169.129C224.046 169.129 232.265 169.048 233.152 168.968C233.071 168.968 233.152 172.03 233.071 172.272C232.91 173.239 232.346 174.044 231.459 174.447C230.654 174.85 229.767 174.85 228.881 174.931C228.881 175.011 228.8 175.011 228.72 175.011Z" fill="#101C59"/>
<path d="M210.75 151.885C212.201 152.046 213.651 152.207 215.102 152.288" stroke="#FFB413" stroke-miterlimit="10"/>
<path d="M213.651 143.585C214.376 144.31 215.343 144.874 216.31 145.277" stroke="#FFB413" stroke-miterlimit="10"/>
<path d="M220.42 137.38C221.064 138.589 221.628 139.878 222.273 141.087" stroke="#FFB413" stroke-miterlimit="10"/>
<path d="M228.881 135.366C229.042 136.816 229.203 138.267 229.284 139.717" stroke="#FFB413" stroke-miterlimit="10"/>
<path d="M233.877 136.816C233.393 138.025 233.071 139.233 232.829 140.523" stroke="#FFB413" stroke-miterlimit="10"/>
<path d="M239.034 145.277C240.001 144.955 240.968 144.552 241.935 144.229" stroke="#FFB413" stroke-miterlimit="10"/>
<path d="M241.773 152.69C242.74 152.61 243.707 152.69 244.674 152.932" stroke="#FFB413" stroke-miterlimit="10"/>
<path d="M238.873 161.232C239.275 161.474 239.678 161.635 240.081 161.877" stroke="#FFB413" stroke-miterlimit="10"/>
<path d="M217.519 161.232C216.955 161.715 216.391 162.199 215.827 162.682" stroke="#FFB413" stroke-miterlimit="10"/>
<path d="M232.184 197.815C229.606 201.039 226.222 203.939 223.482 206.76C219.05 211.353 214.457 215.946 209.864 220.378C205.351 224.649 201.967 233.029 209.622 236.655C212.604 238.025 216.149 237.3 218.889 235.607C221.628 233.835 223.724 231.256 225.657 228.597C230.251 222.312 234.521 215.785 238.309 208.935C241.29 203.537 246.447 196.607 247.414 190.402C247.817 187.823 248.703 184.922 248.059 182.263C247.978 181.86 247.736 181.377 247.334 181.377C247.092 181.377 246.85 181.538 246.689 181.78C245.158 183.311 243.546 184.842 242.015 186.373C241.451 186.856 240.081 189.113 239.195 188.871C239.114 188.871 239.034 188.79 238.953 188.71C238.47 188.226 238.55 187.42 238.631 186.776C238.711 185.97 238.792 185.245 238.873 184.439C238.953 183.956 239.034 182.827 238.631 182.505C238.147 182.022 237.261 182.505 237.019 182.989C236.697 183.553 236.778 184.278 236.778 184.922C236.616 187.34 235.085 189.516 234.763 191.933C234.602 192.9 234.682 194.028 234.199 194.914C233.635 195.801 232.99 196.848 232.184 197.815Z" fill="#EB906E"/>
<path d="M248.3 183.956C247.333 185.97 246.366 188.065 244.835 189.677" stroke="#1B203F" stroke-width="0.5" stroke-miterlimit="10"/>
<path d="M247.897 187.662C247.495 189.032 246.205 191.611 245.158 192.658" stroke="#1B203F" stroke-width="0.5" stroke-miterlimit="10"/>
<path d="M247.817 181.699C247.898 182.263 247.575 182.747 247.334 183.23C246.286 185.084 245.158 186.937 243.788 188.549" stroke="#1B203F" stroke-width="0.5" stroke-miterlimit="10"/>
<path d="M150.234 232.626C146.769 228.194 144.835 223.037 145.802 217.88C146.044 216.59 146.528 215.301 147.333 214.334C148.462 212.884 150.154 211.997 151.846 211.433C159.259 209.016 166.753 212.4 173.2 215.704C179.807 219.088 187.462 220.055 194.634 221.747C196.971 222.312 199.227 221.183 201.483 221.264C203.417 221.345 205.029 219.33 206.963 219.733C207.124 219.814 207.366 219.814 207.527 219.733C207.688 219.652 207.769 219.491 207.849 219.25C208.172 218.444 208.816 217.638 209.703 217.477C210.428 217.396 211.153 217.718 211.636 218.202C212.523 219.088 213.49 220.297 214.054 221.425C216.713 226.743 217.761 232.868 216.955 238.83C216.713 240.684 215.746 242.94 213.893 242.779C213.167 242.698 212.362 242.295 211.717 242.698C211.475 242.86 211.234 243.182 211.072 243.424C209.864 244.955 206.963 244.552 206.238 242.779C197.213 249.789 179.727 246.727 169.412 244.874C162.966 243.585 155.15 238.83 150.234 232.626Z" fill="#FFB413"/>
<path d="M160.226 193.947C162.629 193.947 164.578 191.999 164.578 189.596C164.578 187.193 162.629 185.245 160.226 185.245C157.823 185.245 155.875 187.193 155.875 189.596C155.875 191.999 157.823 193.947 160.226 193.947Z" fill="#EB906E"/>
<path d="M161.032 186.695C160.065 186.453 158.937 186.695 158.131 187.42C157.325 188.146 157.003 189.193 157.164 190.241" stroke="#1B203F" stroke-width="0.5" stroke-miterlimit="10"/>
<path d="M158.212 187.34C157.97 188.629 158.534 189.999 159.582 190.805" stroke="#1B203F" stroke-width="0.5" stroke-miterlimit="10"/>
<path d="M167.801 190.885C168.687 191.772 170.138 191.933 171.185 191.288" stroke="#1B203F" stroke-miterlimit="10"/>
<path d="M167.156 199.185C164.416 200.797 161.113 201.441 157.97 201.119C158.051 201.683 158.615 201.925 159.098 202.167C163.047 203.778 167.64 203.859 171.669 202.328" fill="black"/>
<path d="M211.959 241.651C212.281 239.314 212.12 236.897 211.556 234.641" stroke="#081132" stroke-width="0.5" stroke-miterlimit="10"/>
<path d="M206.399 242.376C206.721 240.926 206.882 239.475 206.963 238.025" stroke="#081132" stroke-width="0.5" stroke-miterlimit="10"/>
<path d="M212.926 236.172C212.523 233.754 211.878 231.417 210.911 229.161" stroke="#081132" stroke-width="0.5" stroke-miterlimit="10"/>
<path d="M217.922 322.311C217.6 321.022 216.552 320.055 216.149 318.766C215.666 317.396 215.908 315.865 216.149 314.495C216.472 312.481 216.794 310.466 217.116 308.371" stroke="#081132" stroke-width="0.5" stroke-miterlimit="10"/>
<path d="M211.637 320.7C212.765 320.458 213.812 320.055 214.86 319.572C215.182 319.411 215.343 319.411 215.666 319.411" stroke="#081132" stroke-width="0.5" stroke-miterlimit="10"/>
<path d="M179.404 245.599C177.47 245.599 175.617 245.196 173.683 244.552C172.394 244.068 171.185 243.585 169.976 242.94C169.815 242.859 169.654 242.859 169.493 242.779C169.412 243.101 169.332 243.423 169.332 243.826C169.412 247.452 176.665 250.112 179.404 250.998C179.324 249.145 179.324 247.372 179.404 245.599Z" fill="black"/>
<path d="M197.293 221.586C187.382 222.311 177.632 218.766 168.929 214.012" stroke="#081132" stroke-width="0.5" stroke-miterlimit="10"/>
<path d="M267.801 352.852C264.336 343.424 260.71 334.076 256.923 324.729C253.619 316.429 248.381 306.196 243.708 298.621" stroke="#081132" stroke-width="0.5" stroke-miterlimit="10"/>
<path d="M165.948 293.867C167.801 293.947 169.332 292.577 171.024 292.013C171.83 291.772 172.797 291.691 173.683 291.53C176.02 291.208 178.357 290.402 180.452 289.274C185.126 286.776 190.363 287.017 195.037 284.761" stroke="#081132" stroke-width="0.5" stroke-miterlimit="10"/>
<path d="M104.948 281.135C114.215 276.139 125.013 273.158 135.73 273.883C146.447 274.528 157.729 278.718 163.45 287.179C176.181 305.793 171.105 330.37 164.9 339.636" stroke="black" stroke-width="3" stroke-miterlimit="10"/>
<path d="M202.531 213.367C201.967 212.481 201.483 211.594 200.919 210.789" stroke="#081132" stroke-width="0.5" stroke-miterlimit="10"/>
<path d="M190.847 201.522C192.217 202.408 193.345 203.778 193.99 205.309" stroke="#081132" stroke-width="0.5" stroke-miterlimit="10"/>
<path d="M188.349 202.569C189.396 203.295 190.444 204.02 191.572 204.745" stroke="#081132" stroke-width="0.5" stroke-miterlimit="10"/>
<path d="M233.179 101.843C236.263 98.7593 236.263 93.7593 233.179 90.6754C230.095 87.5915 225.095 87.5915 222.012 90.6754C218.928 93.7593 218.928 98.7593 222.012 101.843C225.095 104.927 230.095 104.927 233.179 101.843Z" fill="#FFB413"/>
<path d="M227.108 100.636C227.028 100.636 227.027 100.636 227.027 100.636H226.947C226.705 100.636 226.463 100.636 226.302 100.636C226.061 100.636 225.899 100.555 225.738 100.555C225.577 100.555 225.416 100.474 225.255 100.394C225.094 100.313 224.932 100.313 224.771 100.233C224.771 100.071 224.852 99.9103 224.852 99.6686C224.932 99.5074 224.932 99.3462 225.013 99.1045C225.255 99.1851 225.577 99.2657 225.899 99.3462C226.222 99.4268 226.544 99.4268 226.947 99.4268C227.592 99.4268 228.075 99.2657 228.478 99.0239C228.8 98.7822 228.961 98.3793 228.961 97.9764C228.961 97.7346 228.961 97.5735 228.881 97.4123C228.8 97.2512 228.72 97.09 228.559 97.0094C228.397 96.9288 228.236 96.7677 227.994 96.6871C227.753 96.6065 227.511 96.4454 227.269 96.3648L226.705 96.123C226.463 96.0425 226.222 95.8813 226.061 95.8007C225.819 95.6396 225.658 95.559 225.496 95.3978C225.335 95.2367 225.255 94.9949 225.174 94.8338C225.094 94.592 225.013 94.3503 225.013 94.028C225.013 93.3833 225.174 92.8998 225.577 92.4969C225.98 92.094 226.463 91.8523 227.189 91.7717V90.563C227.35 90.563 227.43 90.4824 227.592 90.4824C227.753 90.4824 227.914 90.4824 227.994 90.563V91.6911C228.317 91.6911 228.639 91.7717 229.042 91.7717C229.364 91.8523 229.687 91.9329 229.928 92.0134C229.848 92.3358 229.767 92.6581 229.687 93.061C229.445 92.9804 229.203 92.8998 228.961 92.8192C228.639 92.7387 228.317 92.7387 227.994 92.7387C227.511 92.7387 227.108 92.8193 226.786 93.061C226.544 93.2222 226.383 93.5445 226.383 93.9474C226.383 94.1085 226.383 94.3503 226.463 94.4309C226.544 94.592 226.625 94.6726 226.786 94.8338C226.947 94.9143 227.108 95.0755 227.269 95.1561C227.43 95.2367 227.672 95.3172 227.914 95.4784L228.397 95.6396C228.72 95.8007 228.961 95.8813 229.203 96.0425C229.445 96.2036 229.606 96.3648 229.848 96.5259C230.009 96.6871 230.17 96.9288 230.251 97.1706C230.331 97.4123 230.412 97.7346 230.412 98.057C230.412 98.7822 230.251 99.3462 229.848 99.7491C229.445 100.152 228.881 100.474 228.156 100.636V102.005C228.075 102.005 227.994 102.005 227.914 102.005C227.833 102.005 227.753 102.005 227.672 102.005C227.592 102.005 227.511 102.005 227.43 102.005C227.35 102.005 227.269 102.005 227.189 102.005V100.636H227.108Z" fill="white"/>
<path d="M235.283 76.3148C236.285 72.0704 233.656 67.8171 229.412 66.8149C225.168 65.8126 220.914 68.441 219.912 72.6854C218.91 76.9298 221.538 81.1831 225.783 82.1853C230.027 83.1875 234.28 80.5592 235.283 76.3148Z" fill="#FFB413"/>
<path d="M227.108 78.8787C227.028 78.8787 227.028 78.8787 227.028 78.8787H226.947C226.705 78.8787 226.464 78.8787 226.303 78.8787C226.061 78.8787 225.9 78.7981 225.738 78.7981C225.577 78.7981 225.416 78.7175 225.255 78.637C225.094 78.5564 224.933 78.5564 224.771 78.4758C224.771 78.3146 224.852 78.1535 224.852 77.9117C224.933 77.7506 224.933 77.5894 225.013 77.3477C225.255 77.4283 225.577 77.5088 225.9 77.5894C226.222 77.67 226.544 77.67 226.947 77.67C227.592 77.67 228.075 77.5088 228.478 77.2671C228.8 77.0254 228.962 76.6225 228.962 76.2195C228.962 75.9778 228.962 75.8167 228.881 75.6555C228.8 75.4943 228.72 75.3332 228.559 75.2526C228.398 75.172 228.236 75.0108 227.995 74.9303C227.753 74.8497 227.511 74.6885 227.269 74.6079L226.705 74.3662C226.464 74.2856 226.222 74.1245 226.061 74.0439C225.819 73.8827 225.658 73.8021 225.497 73.641C225.336 73.4798 225.255 73.2381 225.174 73.0769C225.094 72.8352 225.013 72.5934 225.013 72.2711C225.013 71.6265 225.174 71.143 225.577 70.7401C225.98 70.3372 226.464 70.0955 227.189 70.0149V68.8062C227.35 68.8062 227.431 68.7256 227.592 68.7256C227.753 68.7256 227.914 68.7256 227.995 68.8062V69.9343C228.317 69.9343 228.639 70.0149 229.042 70.0149C229.365 70.0955 229.687 70.176 229.929 70.2566C229.848 70.5789 229.767 70.9013 229.687 71.3042C229.445 71.2236 229.203 71.143 228.962 71.0624C228.639 70.9818 228.317 70.9818 227.995 70.9818C227.511 70.9818 227.108 71.0624 226.786 71.3042C226.544 71.4653 226.383 71.7876 226.383 72.1905C226.383 72.3517 226.383 72.5934 226.464 72.674C226.544 72.8352 226.625 72.9158 226.786 73.0769C226.947 73.1575 227.108 73.3187 227.269 73.3992C227.431 73.4798 227.672 73.5604 227.914 73.7216L228.398 73.8827C228.72 74.0439 228.962 74.1245 229.203 74.2856C229.445 74.4468 229.606 74.6079 229.848 74.7691C230.009 74.9303 230.17 75.172 230.251 75.4137C230.332 75.6555 230.412 75.9778 230.412 76.3001C230.412 77.0253 230.251 77.5894 229.848 77.9923C229.445 78.3952 228.881 78.7175 228.156 78.8787V80.2486C228.075 80.2486 227.995 80.2486 227.914 80.2486C227.834 80.2486 227.753 80.2486 227.672 80.2486C227.592 80.2486 227.511 80.2486 227.431 80.2486C227.35 80.2486 227.269 80.2486 227.189 80.2486V78.8787H227.108Z" fill="white"/>
<path d="M235.283 54.558C236.285 50.3135 233.656 46.0602 229.412 45.058C225.168 44.0558 220.914 46.6841 219.912 50.9286C218.91 55.173 221.538 59.4262 225.783 60.4285C230.027 61.4307 234.28 58.8024 235.283 54.558Z" fill="#FFB413"/>
<path d="M227.108 57.1223C227.027 57.1223 227.027 57.1223 227.027 57.1223H226.947C226.705 57.1223 226.463 57.1223 226.302 57.1223C226.06 57.1223 225.899 57.0418 225.738 57.0418C225.577 57.0418 225.416 56.9612 225.254 56.8806C225.093 56.8 224.932 56.8 224.771 56.7194C224.771 56.5583 224.852 56.3971 224.852 56.1554C224.932 55.9942 224.932 55.8331 225.013 55.5913C225.254 55.6719 225.577 55.7525 225.899 55.8331C226.221 55.9136 226.544 55.9136 226.947 55.9136C227.591 55.9136 228.075 55.7525 228.478 55.5107C228.8 55.269 228.961 54.8661 228.961 54.4632C228.961 54.2215 228.961 54.0603 228.881 53.8991C228.8 53.738 228.719 53.5768 228.558 53.4962C228.397 53.4157 228.236 53.2545 227.994 53.1739C227.752 53.0933 227.511 52.9322 227.269 52.8516L226.705 52.6098C226.463 52.5293 226.221 52.3681 226.06 52.2875C225.819 52.1264 225.657 52.0458 225.496 51.8846C225.335 51.7235 225.254 51.4817 225.174 51.3206C225.093 51.0788 225.013 50.8371 225.013 50.5148C225.013 49.8701 225.174 49.3866 225.577 48.9837C225.98 48.5808 226.463 48.3391 227.188 48.2585V47.0498C227.35 47.0498 227.43 46.9692 227.591 46.9692C227.752 46.9692 227.914 46.9692 227.994 47.0498V48.1779C228.317 48.1779 228.639 48.2585 229.042 48.2585C229.364 48.3391 229.686 48.4197 229.928 48.5003C229.848 48.8226 229.767 49.1449 229.686 49.5478C229.445 49.4672 229.203 49.3866 228.961 49.3061C228.639 49.2255 228.317 49.2255 227.994 49.2255C227.511 49.2255 227.108 49.3061 226.785 49.5478C226.544 49.709 226.383 50.0313 226.383 50.4342C226.383 50.5953 226.383 50.8371 226.463 50.9177C226.544 51.0788 226.624 51.1594 226.785 51.3206C226.947 51.4011 227.108 51.5623 227.269 51.6429C227.43 51.7235 227.672 51.804 227.914 51.9652L228.397 52.1264C228.719 52.2875 228.961 52.3681 229.203 52.5293C229.445 52.6904 229.606 52.8516 229.848 53.0127C230.009 53.1739 230.17 53.4157 230.25 53.6574C230.331 53.8991 230.412 54.2215 230.412 54.5438C230.412 55.269 230.25 55.8331 229.848 56.236C229.445 56.6389 228.881 56.9612 228.155 57.1223V58.4922C228.075 58.4922 227.994 58.4922 227.914 58.4922C227.833 58.4922 227.752 58.4922 227.672 58.4922C227.591 58.4922 227.511 58.4922 227.43 58.4922C227.35 58.4922 227.269 58.4922 227.188 58.4922V57.1223H227.108Z" fill="white"/>
<path d="M279.646 55.1881L324.852 54.7046L300.678 84.6804L290.363 68.0809L285.69 73.8827L285.448 61.7956L279.646 55.1881Z" fill="#52A1BF"/>
<path d="M317.439 58.25L290.364 68.0808L286.576 79.6843L280.049 73.4797L285.448 61.7955L317.439 58.25Z" fill="black"/>
<path d="M369.977 71.5459C352.813 71.5459 338.953 85.4057 338.953 102.569C338.953 119.733 352.813 133.593 369.977 133.593C387.14 133.593 401 119.733 401 102.569C401 85.4057 387.14 71.5459 369.977 71.5459ZM369.977 121.747C359.421 121.747 350.799 113.125 350.799 102.569C350.799 92.0133 359.421 83.3912 369.977 83.3912C380.533 83.3912 389.155 92.0133 389.155 102.569C389.155 113.125 380.533 121.747 369.977 121.747Z" fill="white"/>
<path d="M46.3667 48.0166C33.7156 48.0166 23.4014 58.3309 23.4014 70.982C23.4014 83.633 33.7156 93.9473 46.3667 93.9473C59.0178 93.9473 69.3321 83.633 69.3321 70.982C69.3321 58.2503 59.0178 48.0166 46.3667 48.0166ZM46.3667 85.1641C38.5504 85.1641 32.1846 78.7982 32.1846 70.982C32.1846 63.1657 38.5504 56.7998 46.3667 56.7998C54.183 56.7998 60.5488 63.1657 60.5488 70.982C60.5488 78.7982 54.183 85.1641 46.3667 85.1641Z" fill="white"/>
<path d="M24.0459 100.152C11.3948 100.152 1.08057 110.466 1.08057 123.117C1.08057 135.768 11.3948 146.083 24.0459 146.083C36.697 146.083 47.0113 135.768 47.0113 123.117C47.0113 110.466 36.697 100.152 24.0459 100.152ZM24.0459 137.299C16.2296 137.299 9.86381 130.933 9.86381 123.117C9.86381 115.301 16.2296 108.935 24.0459 108.935C31.8622 108.935 38.228 115.301 38.228 123.117C38.228 130.933 31.8622 137.299 24.0459 137.299Z" fill="white"/>
<path d="M24.0458 105.148C14.1344 105.148 6.07642 113.206 6.07642 123.117C6.07642 133.029 14.1344 141.087 24.0458 141.087C33.9572 141.087 42.0152 133.029 42.0152 123.117C42.0152 113.206 33.9572 105.148 24.0458 105.148ZM24.0458 134.237C17.9217 134.237 12.9257 129.241 12.9257 123.117C12.9257 116.993 17.9217 111.997 24.0458 111.997C30.1699 111.997 35.1659 116.993 35.1659 123.117C35.1659 129.241 30.1699 134.237 24.0458 134.237Z" fill="white"/>
<path d="M262.483 16.9126C253.538 16.9126 246.367 24.1648 246.367 33.0286C246.367 41.973 253.619 49.1447 262.483 49.1447C271.347 49.1447 278.599 41.8925 278.599 33.0286C278.599 24.1648 271.347 16.9126 262.483 16.9126ZM262.483 43.1012C257.003 43.1012 252.491 38.6693 252.491 33.1092C252.491 27.6298 256.923 23.1173 262.483 23.1173C267.962 23.1173 272.475 27.5492 272.475 33.1092C272.394 38.5887 267.962 43.1012 262.483 43.1012Z" fill="white"/>
<path d="M262.483 20.458C255.472 20.458 249.832 26.0986 249.832 33.1091C249.832 40.1196 255.472 45.7602 262.483 45.7602C269.493 45.7602 275.134 40.1196 275.134 33.1091C275.134 26.0986 269.413 20.458 262.483 20.458ZM262.483 40.9254C258.131 40.9254 254.666 37.4604 254.666 33.1091C254.666 28.7578 258.131 25.2928 262.483 25.2928C266.834 25.2928 270.299 28.7578 270.299 33.1091C270.299 37.3799 266.753 40.9254 262.483 40.9254Z" fill="white"/>
<path d="M104.465 51.0786C104.062 50.998 103.579 50.998 103.176 50.9174C102.048 50.8368 100.758 50.998 99.7913 51.562C99.6302 51.6426 99.3884 51.8038 99.3078 51.9649C99.0661 52.3678 99.469 52.8513 99.8719 53.1736C101 54.1406 102.37 55.5105 103.82 56.0745C105.11 56.558 106.721 56.1551 108.01 55.7522C109.542 55.1881 110.911 54.8658 112.604 54.5435C112.845 54.5435 113.006 54.4629 113.168 54.3018C113.409 54.06 113.329 53.5765 113.087 53.2542C112.845 53.0125 112.442 52.8513 112.04 52.7707C110.911 52.4484 109.783 52.2067 108.655 51.8844C107.205 51.6426 105.835 51.2397 104.465 51.0786Z" fill="#EB906E"/>
<path d="M116.23 44.068C115.102 42.6176 115.263 40.5225 116.713 39.3138L118.325 38.0245C119.775 36.8964 121.87 37.0575 123.079 38.508C124.207 39.9584 124.046 42.0535 122.596 43.2622L120.984 44.5515C119.453 45.7602 117.358 45.5185 116.23 44.068Z" fill="black"/>
<path d="M102.692 58.9752C101.967 59.3781 100.597 60.0227 99.4691 60.4256C98.905 60.5868 98.5021 61.2315 98.6633 61.7149C99.3079 63.3265 101.161 64.6158 102.289 64.2129C108.736 62.6819 114.699 57.9277 118.647 53.8987C119.775 52.7705 119.775 50.9978 120.5 49.7085C121.226 48.4192 122.434 47.2911 122.112 45.9212C121.951 45.196 121.467 44.7125 120.823 44.3902C120.259 44.1484 119.534 43.665 118.647 43.9067C118.002 44.0679 117.438 44.5513 117.036 45.1154C110.911 54.3016 105.593 57.283 102.692 58.9752Z" fill="black"/>
<path d="M133.877 94.1083C129.364 78.9592 123.482 64.3742 116.31 50.4338L128.558 40.603C140.243 50.5144 153.297 59.2976 167.479 67.1139L133.877 94.1083Z" fill="#FFB413"/>
<path d="M146.689 75.8973C137.422 83.3912 131.621 91.6104 133.796 94.2696C135.972 96.9287 145.239 93.0609 154.505 85.6475C163.772 78.1535 169.574 69.9344 167.398 67.2752C165.223 64.6161 155.956 68.4839 146.689 75.8973Z" fill="#FF6548"/>
<path d="M117.922 54.624L117.519 54.1406C114.296 50.1921 114.94 44.3904 118.889 41.1672C122.837 37.9439 128.639 38.5886 131.862 42.537L132.265 43.0205L117.922 54.624Z" fill="#52A1BF"/>
<path d="M151.765 82.4241C148.945 84.6804 144.835 84.358 142.66 81.6989C140.484 78.9592 141.048 74.9302 143.869 72.6739C146.689 70.4177 150.798 70.74 152.974 73.3991C155.15 76.0583 154.586 80.0873 151.765 82.4241Z" fill="#101C59"/>
<path d="M146.689 75.8973C137.422 83.3912 131.621 91.6104 133.796 94.2696C135.972 96.9287 145.239 93.0609 154.505 85.6475C163.772 78.1535 169.574 69.9344 167.398 67.2752C165.223 64.6161 155.956 68.4839 146.689 75.8973Z" stroke="white" stroke-width="2" stroke-miterlimit="10"/>
<path d="M162.402 64.2131C160.226 61.4734 151.604 64.7772 143.224 71.4653C134.844 78.2341 129.848 85.8892 132.023 88.6289" stroke="#101C59" stroke-miterlimit="10"/>
<path d="M107.527 69.6925C108.01 69.1285 107.849 68.0809 107.124 67.7586C107.93 68.1615 108.897 68.4032 109.622 67.9198C110.428 67.5169 110.67 66.2276 109.944 65.7441C110.75 66.3887 112.12 66.147 112.684 65.2606C113.248 64.3742 112.845 63.0044 111.878 62.6015C113.006 62.9238 114.86 63.2461 115.424 61.7957C115.988 60.4258 114.134 59.2171 113.168 58.5725C111.234 57.2832 109.219 56.0745 107.285 54.7852C105.996 53.9794 104.707 53.1736 103.337 52.5289C102.45 52.126 101.483 51.7232 100.516 51.2397C99.2272 50.5144 98.1796 49.5475 97.0515 48.5805C84.3198 37.3799 75.2948 23.1978 66.8339 8.7739C65.464 6.43708 64.0136 4.01967 61.9185 2.32749C59.8234 0.554724 57.0031 -0.492818 54.344 0.232403C51.6848 0.957625 49.7509 3.45561 49.0257 6.11476C48.3005 8.7739 48.6228 11.6748 49.2674 14.3339C54.344 35.1236 71.7493 49.064 89.074 59.8617C90.5245 60.7481 91.8943 61.6345 93.3448 62.5209C94.4729 63.2461 95.601 63.8908 96.568 64.8577C97.3738 65.5829 98.0184 66.4693 98.7437 67.114C100.033 68.2421 101.645 68.8867 103.256 69.4508C104.707 69.9343 106.56 70.9818 107.527 69.6925Z" fill="#EB906E"/>
<path d="M112.281 62.9237C111.959 62.7625 109.864 61.1509 109.542 60.9897" stroke="#100E0E" stroke-width="0.75" stroke-miterlimit="10" stroke-linecap="round"/>
<path d="M110.025 65.8245C109.461 65.5022 108.252 64.4547 107.688 64.0518" stroke="#100E0E" stroke-width="0.75" stroke-miterlimit="10" stroke-linecap="round"/>
<path d="M107.527 68.0002C107.205 67.7585 106.157 66.9527 105.835 66.7109" stroke="#100E0E" stroke-width="0.75" stroke-miterlimit="10" stroke-linecap="round"/>
<path d="M134.602 310.144C133.876 307.163 131.539 304.826 127.43 305.067C114.94 305.793 101.403 316.51 97.6152 328.113C103.417 325.132 110.025 322.876 116.471 322.392C121.95 321.909 126.221 323.279 131.056 319.572C134.118 317.155 135.246 313.287 134.602 310.144ZM111.797 313.77C112.281 316.268 107.124 318.283 110.589 312.964C110.669 313.045 111.475 312.4 111.797 313.77ZM125.335 318.605C124.61 320.055 117.921 316.429 121.95 315.704C122.676 315.865 126.221 316.429 125.335 318.605ZM128.558 315.543C128.477 316.429 123.884 316.268 124.69 314.173C125.335 313.77 128.236 313.609 128.558 315.543Z" fill="#006650"/>
<path d="M116.471 315.301C89.1544 325.696 96.8095 337.703 88.4292 356.639" stroke="#1A0400" stroke-width="0.5" stroke-miterlimit="10"/>
<path d="M99.4688 278.798C97.5349 276.703 94.7146 275.414 91.8943 275.092C84.8838 274.286 77.7122 279.604 76.3423 286.534C76.02 288.146 76.02 289.757 75.9394 291.449C75.5365 310.95 74.8919 332.384 83.111 350.515C84.6421 346.325 85.7702 341.409 88.107 337.622C90.2021 334.318 92.6195 331.256 94.2311 327.63C97.8572 320.136 100.033 311.997 101.161 303.778C102.047 297.171 103.82 287.904 101.242 281.619C100.839 280.571 100.275 279.604 99.4688 278.798ZM85.609 299.83C84.6421 300.152 80.5325 293.706 84.3197 295.076C84.8838 295.478 87.3012 298.863 85.609 299.83ZM88.1876 288.468C88.9934 293.625 82.6276 288.951 83.3528 285.567C85.1255 283.15 87.9458 285.164 88.1876 288.468ZM92.4583 322.956C92.0554 324.729 88.5099 328.033 89.3963 323.681C89.9604 320.942 92.9418 319.814 92.4583 322.956Z" fill="#006650"/>
<path d="M88.2681 302.569L82.2246 361.957" stroke="#1A0400" stroke-width="0.5" stroke-miterlimit="10"/>
<path d="M74.4889 324.971C72.8773 319.491 68.6065 315.14 62.9659 313.851C58.4534 312.803 35.8104 312.239 42.8209 323.198C43.7073 324.568 45.1577 325.535 46.6887 326.26C49.0255 327.388 51.5235 328.275 54.1021 328.678C57.7282 329.322 61.5155 329.161 65.061 330.209C69.8958 331.659 71.4268 337.3 73.1996 341.57C74.2471 340.926 74.5695 339.556 74.7306 338.267C75.2141 334.64 75.6976 331.014 75.1335 327.388C74.8918 326.663 74.7306 325.777 74.4889 324.971Z" fill="#006650"/>
<path d="M72.9579 355.591C72.9579 351.804 73.9249 339.717 73.1997 336.01C72.555 332.465 71.5881 328.919 69.493 326.018C67.3979 323.118 64.0941 320.861 60.5486 320.781" stroke="#1A0400" stroke-width="0.5" stroke-miterlimit="10"/>
<path d="M66.8337 353.979H95.198L91.9748 376.22H70.2987L66.8337 353.979Z" fill="#007DAA"/>
</svg>
